<?xml version="1.0" standalone="no"?>
<!DOCTYPE svg PUBLIC "-//W3C//DTD SVG 20010904//EN"
 "http://www.w3.org/TR/2001/REC-SVG-20010904/DTD/svg10.dtd">
<svg version="1.0" xmlns="http://www.w3.org/2000/svg"
 width="1024.000000pt" height="1024.000000pt" viewBox="0 0 1024.000000 1024.000000"
 preserveAspectRatio="xMidYMid meet">

<g transform="translate(0.000000,1024.000000) scale(0.100000,-0.100000)"
fill="#000000" stroke="none">
<path d="M0 8710 l0 -1530 22 9 c53 21 81 42 153 112 42 41 80 76 85 77 6 2
10 10 10 17 0 8 11 26 25 41 14 15 25 31 25 35 0 5 9 9 20 9 19 0 25 -16 22
-60 -3 -33 -27 -110 -35 -110 -4 0 -5 -4 -2 -10 3 -5 2 -10 -4 -10 -6 0 -8 -7
-5 -15 4 -8 2 -21 -4 -28 -5 -6 -10 -52 -11 -102 -1 -49 -7 -110 -12 -134 -5
-24 -7 -46 -5 -49 5 -4 -19 -54 -44 -92 -35 -53 -100 -173 -100 -183 0 -7 -5
-18 -10 -23 -11 -11 -19 -40 -24 -85 -2 -14 -9 -42 -16 -63 -24 -74 22 -249
92 -349 36 -50 178 -327 178 -346 0 -4 22 -34 48 -67 51 -64 68 -97 78 -159
19 -119 83 -115 205 13 37 38 107 97 155 131 49 34 116 80 148 104 57 41 61
42 135 42 82 -1 133 -20 260 -100 30 -19 91 -49 135 -66 l81 -31 145 12 c201
17 1502 26 1640 11 141 -14 172 -25 219 -72 46 -45 56 -73 46 -126 -16 -85
-44 -96 -213 -83 -65 5 -236 14 -382 20 -617 25 -1046 49 -1182 66 -55 6 -58
6 -58 -15 0 -12 8 -30 18 -40 25 -26 149 -131 205 -173 27 -21 70 -56 96 -80
27 -24 86 -74 132 -113 132 -110 345 -336 434 -459 28 -38 64 -85 80 -105 17
-20 48 -62 70 -93 21 -32 44 -58 51 -58 7 0 93 80 191 178 98 97 216 206 262
242 210 162 293 230 282 230 -25 0 0 18 32 23 39 6 242 124 273 159 20 21 146
223 212 337 14 24 50 67 80 95 180 166 199 188 221 256 25 76 81 175 131 232
35 40 35 40 78 29 45 -13 112 -64 112 -87 0 -19 -9 -18 -45 6 -47 31 -59 26
-78 -35 -28 -90 -179 -304 -308 -436 -78 -79 -170 -223 -284 -446 -31 -61 -64
-120 -73 -130 -10 -10 -23 -30 -31 -44 -7 -15 -29 -44 -47 -65 -19 -22 -44
-52 -57 -68 -12 -16 -29 -36 -37 -45 -28 -30 -66 -131 -60 -157 1 -4 -4 -11
-12 -15 -10 -7 -9 -9 5 -9 19 0 23 -15 7 -25 -6 -4 -8 -11 -5 -16 4 -5 1 -9
-4 -9 -6 0 -11 -13 -11 -29 0 -17 -5 -33 -10 -36 -16 -10 -12 -35 6 -35 13 0
12 -5 -5 -26 -12 -15 -21 -31 -21 -37 0 -5 -15 -42 -34 -81 -19 -39 -42 -96
-52 -126 -9 -30 -23 -64 -29 -75 -7 -11 -16 -31 -20 -45 -4 -14 -20 -54 -36
-89 -16 -35 -39 -87 -51 -115 -12 -28 -24 -53 -27 -56 -4 -3 -21 -34 -40 -70
-113 -218 -126 -236 -178 -246 -24 -4 -41 -1 -61 12 -43 30 -78 43 -92 34 -7
-5 -19 -6 -27 -3 -18 7 -17 -12 2 -27 9 -7 13 -15 10 -18 -3 -3 -13 2 -23 11
-17 15 -20 15 -45 -8 -14 -14 -29 -25 -32 -25 -3 0 -21 -16 -41 -35 -19 -19
-39 -35 -44 -35 -5 0 -13 -6 -17 -13 -4 -8 -23 -24 -42 -38 -19 -13 -52 -41
-74 -61 -22 -21 -44 -38 -49 -38 -5 0 -24 -15 -42 -33 -18 -18 -39 -31 -46
-29 -9 3 -11 -2 -7 -17 4 -16 1 -21 -14 -21 -10 0 -19 -4 -19 -8 0 -4 -19 -22
-42 -40 -24 -18 -87 -76 -141 -128 -53 -51 -103 -94 -110 -94 -7 0 -18 -9 -25
-20 -7 -11 -19 -20 -28 -20 -10 0 -14 -6 -10 -15 3 -10 -1 -15 -13 -15 -10 0
-23 -11 -29 -25 -7 -15 -20 -25 -33 -25 -12 0 -23 -8 -26 -20 -3 -10 -13 -22
-24 -25 -10 -3 -21 -15 -24 -26 -4 -10 -12 -19 -20 -19 -7 0 -33 -20 -57 -45
-24 -24 -49 -45 -55 -45 -7 0 -13 -7 -13 -16 0 -9 -13 -21 -30 -27 -16 -6 -30
-17 -30 -24 0 -8 -11 -18 -25 -23 -14 -5 -25 -14 -25 -20 0 -5 -9 -10 -20 -10
-11 0 -20 -5 -20 -11 0 -6 -7 -9 -15 -5 -9 3 -15 0 -15 -8 0 -8 -26 -35 -57
-62 -84 -70 -85 -71 -120 -103 -18 -17 -33 -35 -33 -41 0 -5 -11 -10 -25 -10
-14 0 -25 -4 -25 -10 0 -5 -9 -10 -20 -10 -14 0 -18 -5 -13 -17 5 -12 2 -15
-10 -10 -10 4 -27 -3 -43 -17 -55 -49 -64 -56 -80 -56 -11 0 -15 -6 -11 -20 5
-20 -16 -46 -31 -36 -5 3 -14 -6 -20 -19 -7 -14 -18 -25 -27 -25 -8 0 -15 -4
-15 -8 0 -4 -14 -16 -30 -25 -16 -10 -30 -25 -30 -34 0 -10 -6 -14 -20 -10
-11 3 -20 1 -20 -3 0 -4 -9 -6 -20 -3 -22 6 -100 -61 -100 -86 0 -8 -7 -11
-20 -8 -18 4 -20 2 -14 -16 13 -43 26 -51 45 -28 10 12 20 21 23 21 3 0 38 24
77 54 40 30 78 52 84 50 6 -3 24 11 40 31 17 19 36 35 43 35 7 0 36 16 65 35
28 19 57 35 63 35 6 0 21 13 33 29 15 20 28 27 42 24 10 -3 19 -1 19 4 0 6 28
31 63 56 34 26 76 59 94 74 54 47 95 78 114 85 11 4 19 14 19 22 0 10 6 13 15
10 8 -4 15 -2 15 4 0 8 52 46 83 60 7 4 38 29 84 69 14 13 29 20 34 17 5 -3 9
0 9 6 0 12 50 59 63 60 4 0 19 10 32 23 55 52 73 67 81 67 5 0 25 15 44 33 19
18 73 66 120 106 47 40 86 80 88 87 2 8 9 14 16 14 15 0 82 61 78 72 -1 4 1 7
5 6 16 -3 43 15 43 28 0 8 6 14 13 14 8 0 33 18 58 40 24 22 47 40 51 40 4 0
10 9 13 20 3 11 13 20 20 20 8 0 20 8 27 18 7 10 21 21 31 25 9 3 17 12 17 19
1 7 24 31 52 53 28 22 72 61 99 87 27 26 58 52 69 58 11 6 20 17 20 25 0 9 6
12 15 9 9 -4 15 0 15 9 0 26 21 31 41 11 31 -31 16 -83 -32 -113 -21 -14 -57
-44 -80 -67 -39 -39 -40 -42 -20 -49 27 -8 27 -35 1 -42 -11 -3 -20 -14 -20
-24 0 -13 -7 -19 -24 -19 -14 0 -28 5 -31 10 -3 6 -11 10 -17 10 -7 0 -2 -9
11 -21 28 -27 25 -64 -6 -64 -12 0 -29 -9 -37 -20 -16 -22 -32 -14 -38 20 -2
11 -12 21 -23 24 -19 3 -19 3 -2 -17 14 -16 16 -25 8 -40 -7 -13 -7 -22 1 -30
9 -9 8 -12 -5 -12 -10 0 -17 -8 -17 -20 0 -12 -7 -20 -16 -20 -13 0 -15 7 -11
30 8 36 0 60 -17 54 -14 -5 -19 -84 -6 -84 5 0 6 -9 3 -20 -4 -17 -8 -18 -20
-8 -11 9 -16 9 -24 -3 -6 -10 -9 -10 -9 -1 0 6 -6 12 -14 12 -8 0 -16 6 -19
13 -3 6 -3 -13 -2 -43 4 -50 2 -53 -10 -36 -14 19 -15 18 -21 -11 -6 -30 -6
-31 -25 -12 -10 10 -19 24 -19 29 0 6 -8 5 -20 -2 -11 -7 -20 -18 -20 -24 0
-6 -10 -19 -22 -28 -16 -12 -19 -18 -10 -22 17 -8 15 -44 -2 -44 -8 0 -17 -12
-20 -26 -8 -29 -52 -74 -72 -74 -17 0 -19 36 -3 46 6 3 15 1 19 -5 4 -7 14 6
24 33 10 26 22 46 27 46 5 0 9 8 9 17 0 12 -17 0 -55 -37 -54 -54 -55 -56 -49
-99 5 -41 4 -44 -10 -32 -10 9 -14 22 -11 35 6 19 5 19 -13 -3 -19 -24 -19
-61 1 -61 6 0 8 -2 5 -5 -14 -14 -38 10 -38 38 l0 31 -40 -39 c-21 -22 -39
-45 -40 -51 0 -5 -8 -19 -19 -30 -10 -11 -21 -38 -25 -59 -7 -37 -9 -38 -21
-21 -13 17 -15 17 -43 -14 -21 -22 -31 -28 -35 -18 -3 7 -6 3 -6 -9 -1 -21
-16 -29 -44 -24 -4 1 -12 -10 -17 -24 -5 -14 -14 -25 -20 -25 -5 0 -10 -7 -10
-15 0 -9 -8 -19 -18 -22 -9 -4 -25 -16 -34 -28 -10 -11 -17 -15 -18 -7 0 6 5
12 10 12 6 0 10 11 10 24 0 14 5 28 10 31 6 3 10 11 10 18 0 6 -10 -3 -22 -20
-13 -18 -38 -38 -55 -44 -35 -11 -46 -31 -13 -22 27 7 26 -14 -3 -37 -13 -12
-31 -17 -45 -13 -24 6 -31 -14 -11 -34 8 -8 8 -16 0 -30 -9 -16 -10 -15 -11
10 0 22 -4 27 -26 27 -20 0 -24 -4 -20 -18 8 -25 -28 -59 -46 -45 -9 7 -22 7
-38 1 -24 -9 -24 -10 -5 -20 41 -23 41 -48 0 -48 -17 0 -25 -6 -27 -23 -2 -16
-14 -25 -48 -36 -25 -7 -53 -18 -63 -23 -11 -5 -22 -7 -25 -4 -3 3 0 6 7 6 7
0 9 5 6 10 -10 16 -35 12 -35 -5 0 -9 -8 -25 -19 -36 -11 -12 -16 -29 -13 -44
5 -28 -24 -47 -38 -25 -13 21 -42 -7 -34 -32 5 -17 3 -18 -15 -9 -18 10 -21 9
-21 -9 0 -29 -34 -22 -38 8 -4 25 -17 29 -26 7 -3 -8 -17 -20 -31 -25 -14 -5
-25 -14 -25 -20 0 -5 -6 -10 -13 -10 -8 0 -28 -16 -46 -35 -17 -19 -36 -35
-42 -35 -5 0 -1 -10 11 -22 11 -12 20 -25 20 -29 0 -16 -23 -21 -31 -8 -9 16
-7 18 -83 -70 -50 -57 -54 -75 -10 -46 26 17 28 17 41 -1 7 -10 11 -24 9 -30
-3 -7 4 -14 15 -17 10 -3 23 -17 29 -32 8 -22 15 -26 36 -22 14 2 31 -1 37 -7
27 -27 56 -25 77 4 11 16 30 30 42 32 13 2 27 13 33 24 6 12 17 29 25 39 12
14 14 15 22 1 5 -9 5 -23 -1 -33 -5 -10 -11 -31 -12 -47 -3 -25 0 -31 26 -39
39 -13 42 -16 25 -27 -13 -8 -12 -12 5 -25 59 -47 137 -60 228 -39 17 4 27 2
27 -5 0 -6 10 -11 23 -11 13 0 34 -11 47 -26 17 -17 33 -24 53 -22 15 2 31 -2
35 -8 4 -7 27 -11 52 -11 25 1 78 -3 119 -7 58 -7 75 -5 82 5 7 11 11 10 23
-6 8 -11 12 -24 9 -29 -4 -5 -1 -6 6 -2 6 4 29 8 52 8 30 0 47 -6 67 -25 17
-15 45 -27 74 -31 25 -4 52 -14 59 -22 7 -8 20 -12 30 -9 13 4 19 1 19 -8 0
-18 53 -34 58 -18 8 23 63 11 95 -19 18 -17 38 -28 45 -25 7 2 22 -1 34 -8 15
-9 22 -9 25 -1 2 7 13 10 24 7 10 -3 25 0 32 5 15 13 86 -15 87 -35 0 -6 14
-16 30 -22 17 -5 33 -17 36 -25 3 -8 11 -13 18 -10 6 2 22 -9 34 -26 13 -17
27 -28 31 -25 14 8 73 -27 78 -46 4 -14 11 -17 28 -13 13 3 26 1 29 -5 4 -6
19 -11 33 -11 19 0 40 -14 72 -49 46 -48 96 -81 126 -81 8 0 15 -7 15 -16 0
-10 6 -14 14 -11 7 3 13 0 13 -6 -1 -37 7 -46 51 -62 26 -10 52 -22 58 -27 6
-4 20 -5 29 -1 14 5 17 3 12 -10 -5 -14 0 -17 23 -17 20 0 30 -5 30 -15 0 -11
11 -15 35 -15 22 0 38 -6 41 -15 4 -8 14 -15 24 -15 23 0 87 -27 95 -40 3 -5
17 -10 31 -10 14 0 27 -6 30 -14 3 -8 13 -12 25 -9 13 4 19 0 19 -11 0 -11 9
-16 27 -16 14 0 24 -3 20 -6 -11 -11 21 -34 47 -34 17 0 24 -4 20 -13 -4 -12
55 -44 71 -38 9 3 51 -52 47 -62 -1 -4 8 -5 20 -2 23 6 36 -2 112 -66 27 -23
112 -71 243 -139 23 -12 45 -30 48 -41 6 -18 20 -19 346 -19 214 0 339 4 339
10 0 5 -11 42 -24 82 -30 88 -45 179 -39 233 6 53 54 165 71 165 7 0 38 27 68
60 54 57 164 140 188 140 25 0 120 40 152 65 l34 26 -16 37 c-9 20 -25 60 -37
87 -19 45 -21 66 -19 205 1 85 -3 189 -9 230 -6 41 -15 102 -19 135 -25 172
-41 357 -36 411 2 33 14 98 25 145 11 46 23 100 26 121 5 34 8 37 58 48 66 16
115 41 146 74 31 33 37 33 44 -2 7 -35 -30 -197 -49 -213 -8 -6 -14 -17 -14
-23 0 -6 -6 -23 -14 -37 -7 -15 -14 -49 -14 -76 0 -27 -3 -69 -7 -92 -4 -27
-3 -47 5 -56 7 -8 10 -21 7 -29 -8 -20 16 -175 41 -267 11 -42 37 -116 56
-163 20 -47 36 -103 37 -124 1 -48 9 -66 34 -70 70 -12 140 -20 143 -17 4 4
34 141 58 265 16 80 19 144 19 400 l0 305 -32 131 c-18 71 -40 191 -49 265
-25 216 -18 200 -95 205 -36 3 -115 13 -175 23 -60 11 -181 31 -269 46 -88 15
-263 45 -390 67 -126 22 -273 46 -325 54 -446 65 -439 63 -501 124 -67 64 -75
102 -54 238 9 58 26 140 37 182 22 84 88 397 119 565 42 227 106 542 149 730
43 189 146 680 176 836 14 74 38 188 54 254 15 66 35 158 44 205 9 47 30 141
46 210 16 69 40 177 54 240 116 541 138 611 206 656 57 38 106 46 213 34 174
-19 164 -15 164 -65 0 -79 46 -115 148 -115 22 0 103 -7 180 -15 364 -40 610
-65 636 -65 40 0 109 63 109 100 0 27 1 27 53 23 28 -3 93 -11 144 -18 138
-19 183 -62 183 -174 0 -46 -33 -253 -71 -450 -11 -58 -33 -173 -49 -256 -157
-819 -241 -1239 -360 -1795 -23 -107 -52 -260 -65 -340 -12 -80 -41 -233 -64
-340 -23 -107 -44 -207 -47 -223 -9 -46 -33 -19 -85 99 -48 108 -99 174 -134
174 -15 0 -20 -28 -18 -105 2 -85 1 -83 50 -105 69 -30 107 -70 68 -70 -8 0
-15 -6 -15 -13 0 -7 -16 -21 -36 -30 -39 -19 -41 -41 -3 -45 69 -7 92 -15 122
-42 33 -28 60 -79 71 -130 3 -14 30 -56 61 -94 30 -39 54 -75 52 -80 -2 -6
-34 -14 -71 -18 -57 -5 -71 -11 -92 -35 -35 -39 -56 -81 -45 -88 5 -3 7 -20 4
-38 -3 -22 4 -53 22 -97 36 -86 56 -200 50 -275 -6 -62 16 -162 49 -222 8 -15
20 -39 26 -54 16 -38 59 -59 119 -57 59 3 75 -10 113 -90 17 -38 18 -48 7 -75
-22 -54 -117 -193 -165 -243 -51 -52 -116 -165 -134 -232 -10 -40 -40 -221
-61 -376 -5 -38 -14 -77 -19 -87 -6 -10 -10 -19 -10 -21 0 -3 47 -3 105 -2 73
2 114 8 136 20 42 21 128 27 376 26 189 -1 243 -8 243 -30 0 -20 -137 -51
-217 -51 -45 1 -86 -2 -91 -5 -6 -3 -49 -10 -96 -15 -108 -11 -119 -19 -113
-85 3 -28 10 -112 16 -186 6 -74 13 -157 16 -185 10 -96 25 -260 31 -330 3
-38 7 -80 10 -92 l4 -23 1700 0 1700 0 -4 23 c-3 12 -16 105 -30 207 -14 102
-37 266 -51 366 -39 285 -112 624 -196 916 -36 128 -39 145 -39 267 0 86 4
131 11 131 6 0 8 9 4 21 -5 15 -4 19 4 15 6 -4 11 -1 11 6 0 10 3 9 11 -2 8
-11 12 -12 16 -2 2 7 22 12 44 12 37 0 39 -2 39 -30 l0 -30 60 0 c47 0 66 -5
82 -20 13 -12 36 -20 56 -20 26 0 35 -5 39 -21 4 -14 12 -19 28 -17 12 1 30
-3 39 -11 15 -12 16 298 16 4208 l0 4221 -540 0 -540 0 0 -22 c0 -12 4 -35 10
-52 5 -17 12 -52 15 -78 4 -26 12 -54 19 -61 7 -7 16 -26 19 -42 3 -17 11 -50
17 -75 6 -25 17 -79 24 -120 8 -41 15 -79 16 -85 2 -5 0 -18 -5 -28 -4 -10 -5
-35 -2 -56 4 -36 3 -39 -22 -40 -57 -4 -147 -3 -161 2 -18 6 -73 21 -155 43
-57 15 -171 26 -400 40 l-100 5 -76 -48 c-87 -55 -161 -117 -178 -151 -17 -33
-25 -150 -13 -197 6 -22 18 -60 27 -85 28 -75 25 -114 -14 -154 -18 -19 -47
-37 -65 -40 -17 -3 -134 -6 -261 -7 -126 -1 -246 -4 -265 -7 l-35 -6 40 -9
c22 -4 164 -10 315 -13 327 -6 426 -23 613 -103 26 -11 78 -25 115 -31 71 -12
115 -27 197 -65 28 -13 70 -29 95 -36 25 -7 50 -17 57 -21 13 -10 129 -5 156
6 22 10 24 -16 2 -34 -8 -7 -12 -16 -9 -21 3 -5 -6 -9 -21 -9 -15 0 -28 -7
-32 -17 -7 -20 -33 -48 -50 -54 -6 -2 -35 -38 -65 -79 -43 -61 -63 -80 -111
-103 -32 -16 -82 -31 -115 -34 -36 -4 -82 -19 -125 -41 -91 -46 -128 -42 -186
21 -47 50 -81 61 -290 92 -131 19 -121 20 -121 -11 0 -57 31 -78 132 -89 44
-5 67 -14 100 -40 23 -19 59 -37 80 -40 20 -4 64 -24 96 -46 62 -41 87 -46
217 -40 33 1 89 -1 125 -4 62 -7 89 -1 130 24 25 16 266 91 292 91 22 0 28 -8
43 -56 15 -48 16 -64 5 -116 -6 -34 -10 -116 -9 -182 2 -67 -3 -155 -10 -196
-32 -194 -28 -182 -77 -228 l-46 -42 6 -88 c11 -139 16 -164 30 -149 22 21 34
51 50 120 16 70 34 94 88 124 30 16 62 18 323 18 266 -1 294 -2 340 -21 64
-25 88 -62 105 -157 19 -111 9 -315 -19 -395 -30 -87 -64 -138 -108 -162 -182
-101 -218 -112 -270 -85 -35 19 -60 19 -70 1 -20 -34 -95 -59 -222 -73 -69 -8
-144 -19 -166 -26 l-40 -12 -5 -77 c-6 -71 -9 -81 -40 -113 -54 -55 -110 -69
-285 -68 -123 1 -162 5 -215 22 -88 29 -229 41 -445 39 -240 -2 -348 20 -395
79 -16 20 -20 36 -16 58 3 16 10 56 15 87 21 126 34 169 71 231 35 58 40 73
40 128 0 34 -8 87 -19 118 -25 75 -39 142 -47 223 l-7 68 -56 28 -56 27 -5 61
c-4 51 -10 66 -43 104 -21 25 -39 54 -41 65 -19 108 -28 140 -41 155 -8 9 -15
22 -15 28 0 12 -10 14 -80 16 -57 2 -113 45 -141 110 -13 31 -30 56 -37 56
-20 0 -32 -45 -32 -120 0 -38 -4 -71 -9 -74 -22 -14 -20 -227 6 -500 4 -47 1
-66 -15 -95 -18 -33 -28 -64 -46 -143 -3 -15 -13 -33 -21 -42 -23 -23 -31 -99
-12 -118 9 -8 22 -30 31 -49 8 -19 33 -67 55 -107 27 -51 41 -91 46 -135 6
-45 15 -70 35 -95 15 -18 26 -42 24 -55 -1 -12 -3 -27 -3 -34 -2 -21 -44 -53
-86 -65 -22 -6 -75 -14 -118 -17 l-77 -6 5 30 c3 16 17 95 31 175 47 257 43
340 -18 414 -69 84 -158 104 -703 156 -115 11 -221 22 -235 25 -14 2 -88 9
-165 15 -77 6 -228 22 -335 36 -107 14 -238 28 -290 33 l-95 8 90 2 91 1 -4
36 c-2 19 3 67 13 106 9 38 13 73 8 77 -64 53 -124 104 -151 129 -40 37 -78
46 -164 37 -34 -3 -91 -6 -125 -6 -54 1 -74 -5 -142 -40 -87 -44 -108 -63
-119 -104 -8 -28 12 -119 42 -200 12 -31 14 -66 9 -155 -6 -119 6 -191 45
-265 9 -16 28 -72 42 -123 l27 -94 16 64 c9 34 29 119 43 188 14 68 32 136 40
150 9 14 13 17 10 6 -4 -10 -20 -86 -37 -170 -17 -83 -43 -203 -59 -266 -15
-63 -34 -142 -40 -175 -24 -126 -83 -360 -92 -370 -6 -6 -7 -5 -4 5 11 35 46
201 59 280 l13 85 -255 -3 c-180 -2 -264 1 -286 9 -35 14 -75 48 -75 63 0 22
59 83 92 96 53 21 75 47 109 134 18 44 44 97 57 116 41 60 72 128 72 158 0 16
-18 65 -40 110 -22 44 -40 92 -40 106 0 43 -19 78 -70 129 -40 40 -51 59 -61
105 -14 69 -8 139 19 212 25 68 36 100 58 172 9 31 30 73 46 92 28 34 169 140
218 163 38 18 155 16 211 -4 26 -10 51 -14 55 -10 13 13 -12 49 -48 71 -20 11
-61 36 -92 54 -40 23 -67 48 -91 86 -19 29 -41 56 -49 59 -9 4 -33 -12 -63
-40 -55 -52 -132 -82 -209 -83 -28 0 -54 -3 -58 -7 -20 -21 -82 -31 -130 -22
-80 15 -88 27 -105 165 -10 81 -41 194 -54 194 -5 0 -24 16 -42 36 -19 20 -38
33 -43 30 -14 -9 -22 20 -10 32 8 8 4 22 -11 48 -12 21 -20 46 -18 56 3 10 1
33 -3 50 -6 18 -6 38 0 48 7 13 4 25 -10 43 -11 14 -20 39 -20 56 0 17 -5 31
-10 31 -6 0 -10 -7 -8 -16 2 -10 -3 -19 -11 -22 -8 -3 -11 0 -7 7 4 6 1 11 -8
11 -9 0 -16 -8 -16 -19 0 -11 -9 -23 -21 -26 -12 -4 -18 -12 -15 -21 3 -7 -2
-37 -11 -66 -17 -60 -20 -78 -29 -198 -5 -70 -3 -96 14 -146 23 -71 37 -182
27 -214 -10 -31 -63 -50 -142 -50 -37 0 -85 -5 -105 -10 -43 -12 -88 -61 -88
-95 0 -13 -8 -30 -18 -37 -37 -27 -102 -168 -102 -224 0 -17 -8 -23 -32 -27
-18 -3 -40 -7 -48 -9 -8 -2 -15 2 -15 7 0 6 4 9 8 7 5 -1 5 3 2 9 -4 6 -18 9
-32 6 -15 -3 -27 1 -30 9 -3 8 -11 14 -18 14 -7 0 -18 14 -25 30 -7 17 -16 30
-21 30 -5 0 -9 10 -9 23 -1 12 -7 33 -15 47 -12 21 -13 81 -9 345 3 176 10
352 15 390 6 39 15 108 20 155 6 46 15 92 20 102 5 9 12 99 15 200 3 101 8
192 11 203 3 11 9 94 14 185 6 138 34 527 40 572 1 7 1 30 0 51 l-1 37 -933 0
-932 0 3 -108 c4 -96 2 -112 -20 -159 -22 -49 -88 -110 -102 -95 -3 3 -6 -1
-6 -8 0 -20 -37 17 -43 43 -3 12 -15 47 -27 77 -30 75 -43 124 -54 203 l-7 47
-570 0 -569 0 0 -1530z m2982 433 c2 -114 -2 -178 -13 -181 -5 -2 -9 -162 -9
-384 0 -340 -2 -393 -21 -507 -12 -69 -28 -133 -35 -142 -8 -9 -12 -18 -8 -21
8 -9 -26 -118 -37 -118 -5 0 -9 -10 -9 -22 0 -12 -3 -19 -6 -15 -3 3 -18 -5
-33 -19 -14 -13 -27 -20 -29 -14 -2 5 -15 10 -30 10 -14 0 -41 6 -60 12 -33
12 -35 12 -63 -22 -16 -19 -29 -31 -29 -26 0 4 -12 -7 -26 -24 -36 -42 -92
-67 -194 -85 -201 -35 -607 -3 -651 52 -27 34 -47 78 -54 121 -4 23 -11 42
-16 42 -5 0 -9 13 -9 29 0 17 -5 33 -10 36 -6 4 -8 11 -4 16 3 5 -5 34 -17 64
-16 38 -28 55 -41 55 -10 0 -18 7 -18 15 0 8 -4 15 -10 15 -5 0 -10 6 -10 13
0 15 -46 37 -77 37 -20 0 -23 5 -23 34 0 19 -5 38 -10 41 -5 3 -10 15 -10 25
0 10 -4 20 -9 22 -4 2 -11 47 -15 101 -6 82 -5 97 8 97 11 0 16 19 20 93 7
132 11 160 24 165 7 2 12 10 12 17 0 8 9 17 20 20 11 3 20 13 20 21 0 20 24
44 44 44 9 0 16 5 16 10 0 6 7 10 16 10 8 0 34 19 56 42 32 33 42 39 50 27 8
-12 10 -12 15 0 5 11 7 11 14 0 6 -10 9 -11 9 -1 0 6 9 12 20 12 11 0 20 4 20
8 0 4 22 19 49 33 28 13 53 33 56 44 4 13 8 15 12 8 3 -8 24 -13 52 -13 46 0
101 -18 101 -32 0 -5 7 -8 16 -8 11 0 14 -6 9 -20 -5 -14 -2 -20 9 -20 9 0 16
-6 16 -12 0 -7 17 -50 37 -95 46 -100 61 -104 126 -39 25 24 54 49 65 55 26
14 132 15 132 1 0 -5 7 -10 15 -10 18 0 20 -17 3 -23 -28 -9 14 -37 54 -37 31
0 41 -4 45 -20 3 -11 9 -18 13 -15 4 3 10 -2 14 -10 14 -38 116 0 116 43 0 20
39 52 71 59 23 4 55 52 50 77 -1 5 5 6 13 3 17 -7 31 25 27 61 -2 14 3 22 13
22 9 0 16 8 16 20 0 12 -7 20 -17 20 -13 0 -12 3 5 19 28 23 28 31 0 32 -15 1
-17 3 -7 6 18 5 39 44 39 74 0 11 5 30 12 42 11 21 11 21 20 2 5 -14 6 -10 2
12 -7 40 3 73 22 73 11 0 14 -18 16 -77z m-2062 -332 c0 -11 7 -27 16 -35 14
-15 14 -16 0 -16 -9 0 -16 -8 -17 -17 0 -10 -15 -30 -34 -46 -27 -22 -34 -24
-39 -12 -4 11 -2 14 7 9 9 -5 9 -4 0 6 -9 10 -8 18 5 38 9 15 16 28 14 29 -2
2 3 17 10 33 15 34 38 40 38 11z m-2 -126 c-3 -3 -9 2 -12 12 -6 14 -5 15 5 6
7 -7 10 -15 7 -18z m8317 5 c3 -5 1 -10 -4 -10 -6 0 -11 5 -11 10 0 6 2 10 4
10 3 0 8 -4 11 -10z m-8385 -41 c0 -6 -4 -7 -10 -4 -5 3 -10 11 -10 16 0 6 5
7 10 4 6 -3 10 -11 10 -16z m-427 -767 c-15 -16 -15 -17 0 -20 9 -2 17 -8 17
-13 0 -5 9 -9 19 -9 21 0 22 -19 3 -42 -6 -8 -17 -38 -23 -66 -18 -75 -47 -67
-40 11 1 9 -2 17 -8 17 -6 0 -8 6 -5 14 3 8 12 12 20 9 8 -3 14 0 14 6 0 6
-10 11 -22 11 -13 0 -18 4 -13 8 6 4 11 15 12 25 0 9 1 27 2 40 1 15 8 23 21
24 19 2 19 1 3 -15z m3228 -142 c10 -6 38 -47 60 -92 34 -68 40 -89 36 -124
-4 -42 -51 -114 -73 -114 -20 0 -42 -111 -49 -242 -4 -71 -11 -128 -16 -128
-5 0 -9 -9 -9 -20 0 -11 4 -20 10 -20 6 0 6 -9 0 -26 -13 -33 -13 -31 9 -37
14 -3 17 -11 14 -29 -4 -19 5 -35 41 -71 126 -126 85 -256 -102 -321 -46 -16
-85 -26 -89 -23 -3 4 -14 2 -23 -3 -29 -16 -381 27 -402 48 -7 7 -19 12 -28
12 -19 0 -58 42 -43 47 6 2 37 20 69 40 33 20 86 49 119 66 78 38 127 90 130
137 1 19 9 67 18 105 9 39 17 112 17 163 0 61 4 92 11 92 7 0 9 10 7 24 -3 15
0 27 8 30 10 4 14 27 14 86 0 67 3 80 16 80 10 0 14 5 10 15 -6 17 12 65 25
65 5 0 11 16 15 35 3 19 12 39 20 46 8 6 14 23 14 38 0 14 5 42 10 62 11 39
24 47 95 59 22 4 41 8 43 8 2 1 12 -3 23 -8z m980 -2391 c-25 -41 -28 -21 -4
24 9 18 18 27 20 21 2 -7 -5 -27 -16 -45z m2400 6 c55 -20 82 -40 103 -77 l18
-33 -31 36 c-35 42 -84 58 -188 62 -59 2 -75 11 -55 31 9 10 104 -2 153 -19z
m-2465 -90 c-8 -21 17 -29 43 -15 27 14 27 8 -4 -110 -13 -52 -33 -147 -45
-210 -11 -63 -29 -146 -38 -185 l-18 -69 -69 -13 c-37 -7 -72 -16 -77 -21 -6
-6 7 -29 31 -56 39 -44 50 -66 34 -66 -3 0 -14 7 -24 16 -24 21 -42 8 -37 -27
5 -32 0 -35 -26 -16 -23 17 -29 51 -30 192 -1 104 2 125 20 160 12 22 44 83
71 135 28 52 67 135 88 183 21 49 44 95 52 103 19 19 37 18 29 -1z m2591 -67
c-3 -8 -6 -5 -6 6 -1 11 2 17 5 13 3 -3 4 -12 1 -19z m-7 -27 c0 -6 -12 -23
-26 -38 -25 -28 -23 -19 6 25 16 24 20 27 20 13z m-337 -315 c7 -17 -1 -83
-13 -111 -57 -134 -61 -140 -80 -106 -24 46 -6 173 31 218 15 17 55 17 62 -1z
m242 -204 c-15 -16 -16 -15 -4 12 7 15 15 23 17 16 3 -7 -3 -19 -13 -28z
m1000 -60 c208 -47 329 -99 447 -194 78 -62 205 -189 246 -246 16 -23 111
-125 209 -226 98 -100 195 -207 216 -237 133 -188 208 -302 236 -354 18 -33
46 -82 62 -109 16 -27 28 -50 25 -53 -2 -2 -28 35 -57 84 -100 168 -251 385
-320 459 -49 54 -305 294 -313 294 -4 0 -18 11 -32 25 -14 14 -31 25 -39 25
-7 0 -20 6 -27 13 -25 24 -95 51 -122 48 -15 -2 -18 2 -13 18 7 29 1 26 -18
-6 -15 -26 -16 -26 -11 -4 2 13 -1 29 -7 36 -10 11 -16 9 -34 -8 -25 -22 -44
-17 -24 7 11 13 9 13 -13 3 -24 -11 -25 -13 -8 -25 15 -11 15 -14 2 -23 -11
-8 -9 -9 10 -3 14 3 29 13 33 20 11 20 23 17 23 -5 0 -11 -3 -19 -6 -19 -13 2
-71 -15 -75 -22 -3 -5 3 -6 13 -3 11 2 25 -3 33 -14 13 -17 13 -17 -5 -3 -18
14 -19 13 -13 -4 5 -12 3 -23 -5 -28 -9 -6 -6 -7 8 -3 13 3 26 -1 35 -11 16
-20 16 -24 -3 -35 -23 -15 -32 -10 -14 10 16 18 16 18 -10 13 -29 -5 -49 15
-33 34 7 8 6 15 -2 20 -8 4 -9 3 -5 -4 4 -7 3 -12 -1 -12 -13 0 -30 33 -27 53
3 22 -10 22 -27 0 -12 -15 -12 -16 6 -9 16 6 18 5 7 -5 -22 -23 -35 5 -12 29
25 26 26 42 3 42 -16 0 -16 -2 -3 -11 11 -8 5 -9 -27 -6 -33 4 -40 2 -36 -9 3
-10 13 -12 27 -8 21 6 21 6 1 -10 -23 -17 -39 -21 -30 -6 3 6 -1 10 -9 10 -8
0 -18 5 -22 12 -4 7 -3 8 4 4 7 -4 12 -1 13 6 0 7 2 20 4 29 2 12 -3 15 -21
11 -14 -2 -24 0 -24 7 0 6 -4 11 -10 11 -6 0 -9 -5 -8 -12 2 -6 -6 -13 -17
-15 -15 -3 -16 -2 -7 5 19 13 -31 22 -53 9 -15 -8 -15 -6 -5 13 9 16 9 20 1
15 -17 -10 -81 -14 -75 -4 3 5 20 10 37 10 l32 1 -30 7 c-16 4 -34 4 -39 -1
-6 -4 -17 -8 -25 -8 -11 0 -10 4 5 16 18 15 17 15 -6 2 -14 -8 -34 -18 -44
-22 -19 -7 -19 -6 -1 14 10 11 25 20 34 21 9 0 11 3 5 5 -6 2 -37 -9 -70 -26
-32 -17 -50 -24 -39 -15 46 36 57 47 50 53 -3 3 -9 1 -13 -5 -11 -17 -116 -70
-130 -65 -7 2 -11 -2 -10 -8 3 -12 -77 -62 -85 -53 -3 2 -8 -1 -12 -8 -6 -9 0
-10 19 -7 31 6 23 -6 -11 -17 -14 -4 -23 -2 -23 4 0 6 -7 8 -15 5 -8 -4 -15
-2 -15 4 0 9 13 15 93 44 36 12 65 35 32 24 -20 -6 -20 -6 0 9 11 9 25 13 32
11 7 -3 13 -1 13 4 0 4 14 11 30 15 17 4 30 11 30 16 0 5 6 9 14 9 17 0 29 27
16 35 -6 4 -10 -1 -10 -9 0 -14 -19 -21 -43 -17 -5 1 -6 -3 -2 -8 6 -11 -42
-27 -52 -17 -4 3 1 6 11 6 9 0 14 5 11 10 -3 6 -1 10 6 10 7 0 10 2 7 5 -7 7
-116 -42 -147 -66 -14 -11 -48 -34 -74 -50 -26 -16 -45 -34 -42 -39 3 -6 16
-1 28 11 34 32 60 48 87 52 16 3 24 10 22 20 -2 10 10 19 33 27 20 7 38 10 41
7 3 -2 -7 -8 -21 -11 -14 -4 -23 -10 -21 -15 7 -11 -25 -38 -44 -38 -18 0 -70
-32 -70 -43 0 -5 5 -10 10 -12 6 -2 -8 -23 -30 -48 -45 -50 -54 -77 -12 -38
15 14 38 31 52 38 15 8 20 15 12 18 -14 4 -7 22 9 22 6 0 7 -5 3 -11 -5 -9 1
-10 22 -5 25 5 26 5 9 -5 -54 -30 -94 -62 -89 -70 3 -5 0 -8 -6 -7 -12 3 -120
-194 -120 -219 0 -7 -5 -13 -11 -13 -6 0 -9 -7 -5 -15 5 -13 -26 -94 -61 -158
-8 -16 -12 -31 -9 -34 3 -4 26 36 50 88 25 52 45 89 46 82 0 -15 -71 -163 -97
-199 -11 -16 -30 -49 -42 -72 -12 -24 -24 -42 -27 -39 -2 2 11 32 31 67 19 34
35 64 35 67 0 14 -35 -26 -50 -57 -22 -47 -62 -112 -66 -107 -6 6 87 177 96
177 10 0 53 91 46 98 -3 2 -12 -13 -21 -34 -22 -52 -56 -88 -67 -72 -6 9 -7 6
-4 -7 4 -14 -11 -49 -44 -105 -58 -99 -65 -99 -15 0 37 74 39 80 27 80 -5 0
-23 -31 -42 -70 -18 -38 -35 -68 -37 -67 -4 5 37 111 48 122 5 5 9 17 9 26 0
10 5 21 12 25 8 5 9 2 5 -9 -3 -10 -5 -17 -3 -17 3 0 11 -3 20 -6 9 -3 16 -1
16 6 0 6 -4 8 -10 5 -5 -3 -10 -4 -10 -1 0 7 71 140 81 151 11 12 12 25 0 25
-4 0 -25 -34 -46 -75 -21 -42 -39 -74 -42 -72 -6 7 31 85 92 197 84 152 108
200 102 207 -3 3 -16 -17 -28 -43 -31 -66 -140 -264 -146 -264 -2 0 -2 10 2
23 5 20 5 20 -10 -3 l-15 -25 6 30 c4 21 -4 11 -25 -30 -16 -32 -27 -63 -25
-67 3 -5 -4 -23 -14 -41 -11 -17 -32 -63 -47 -100 -15 -37 -29 -66 -31 -64 -4
4 16 74 31 110 11 25 -8 21 -21 -6 -33 -65 -47 -88 -51 -84 -2 3 7 27 21 53
14 27 26 53 26 57 0 18 -19 -5 -39 -47 -12 -24 -31 -52 -43 -62 -18 -16 -17
-14 4 17 14 21 31 52 38 70 8 19 21 39 28 45 8 6 12 17 9 25 -4 10 -6 9 -6 -3
-1 -23 -21 -24 -21 -1 0 25 -12 7 -16 -23 -3 -35 -24 -84 -35 -84 -5 0 0 19
11 43 l21 42 -31 -35 c-16 -19 -30 -29 -30 -23 0 7 5 15 10 18 12 8 13 25 2
25 -5 0 -14 -10 -19 -22 -9 -19 -10 -15 -8 24 2 26 6 52 10 58 3 5 4 10 1 10
-3 0 -18 -25 -32 -55 -28 -57 -51 -76 -34 -27 l10 27 -20 -25 c-16 -21 -20
-22 -20 -7 0 11 -4 15 -12 11 -7 -4 -8 -3 -4 5 4 6 11 9 15 7 4 -3 13 5 21 17
12 20 12 21 -3 8 -10 -7 -17 -10 -17 -6 0 4 -6 2 -14 -4 -12 -10 -14 -8 -10
11 5 22 5 22 -10 -2 -13 -22 -15 -22 -16 -6 0 20 0 20 -15 0 -13 -17 -14 -17
-15 -1 0 9 -5 17 -11 17 -5 0 -7 -6 -3 -12 5 -10 4 -10 -6 -1 -7 6 -19 9 -26
6 -13 -5 -19 14 -15 40 1 5 -3 6 -8 3 -5 -3 -7 -15 -4 -26 3 -11 0 -20 -6 -20
-6 0 -11 6 -11 13 -1 6 -7 1 -15 -13 -13 -23 -14 -23 -16 -5 -1 11 -1 24 0 28
1 5 -3 6 -9 2 -6 -3 -7 -11 -4 -17 5 -8 1 -9 -10 -5 -9 4 -15 3 -12 -2 3 -5 0
-11 -7 -14 -16 -6 -15 30 4 111 13 57 1 120 -28 143 -25 21 -13 57 38 121 101
124 131 243 94 362 -22 69 -22 70 105 141 119 68 223 106 404 150 189 45 176
44 386 40 139 -3 207 -8 275 -23z m-1280 -160 c-11 -7 -49 -98 -60 -142 -33
-130 -87 -141 -87 -17 0 78 20 120 70 146 34 19 99 30 77 13z m1290 -232 c3
-6 -1 -7 -9 -4 -18 7 -21 14 -7 14 6 0 13 -4 16 -10z m235 -39 c0 -6 -9 -9
-20 -8 -11 1 -20 5 -20 9 0 4 9 8 20 8 11 0 20 -4 20 -9z m-410 -25 c0 -2 -8
-10 -17 -17 -16 -13 -17 -12 -4 4 13 16 21 21 21 13z m29 -19 c-2 -1 -13 -9
-24 -17 -19 -14 -19 -14 -6 3 7 9 18 17 24 17 6 0 8 -1 6 -3z m616 -27 c3 -6
-1 -7 -9 -4 -18 7 -21 14 -7 14 6 0 13 -4 16 -10z m-740 -20 c-3 -5 -16 -15
-28 -21 -19 -9 -19 -8 3 10 28 23 34 26 25 11z m565 -9 c0 -5 -7 -12 -16 -15
-14 -5 -15 -4 -4 9 14 17 20 19 20 6z m60 0 c0 -4 -11 -6 -25 -3 -14 2 -25 6
-25 8 0 2 11 4 25 4 14 0 25 -4 25 -9z m-600 -15 c0 -2 -7 -7 -16 -10 -8 -3
-12 -2 -9 4 6 10 25 14 25 6z m-96 -28 c-10 -13 -31 -35 -46 -49 -16 -14 -25
-28 -22 -32 3 -3 -5 -21 -18 -39 -13 -18 -35 -54 -49 -81 -13 -26 -25 -43 -27
-38 -2 5 11 33 29 62 17 30 37 66 43 81 7 15 31 47 54 72 44 47 70 64 36 24z
m35 -15 c-13 -16 -44 -48 -68 -73 -35 -35 -41 -39 -26 -15 20 33 100 115 111
115 4 0 -3 -12 -17 -27z m798 -20 c4 -10 16 -26 28 -36 20 -17 19 -18 -20 -13
-22 3 -42 6 -45 6 -3 1 4 5 15 10 17 7 14 9 -13 9 -40 1 -34 21 6 21 21 0 24
2 12 10 -10 7 -11 10 -2 10 7 0 16 -8 19 -17z m-809 -43 c-23 -31 -28 -35 -28
-22 0 9 38 52 46 52 2 0 -5 -13 -18 -30z m867 -36 c0 -6 8 -18 18 -28 9 -10
17 -21 17 -26 0 -5 29 -55 65 -110 69 -107 82 -135 38 -80 -34 42 -106 125
-141 164 -15 17 -26 33 -24 38 1 4 -6 8 -15 8 -14 0 -15 2 -4 9 9 6 10 11 2
15 -21 13 -11 27 17 24 15 -2 27 -8 27 -14z m-895 -9 c0 -12 -19 -12 -23 0 -4
9 -1 12 9 8 7 -3 14 -7 14 -8z m-88 -67 c-15 -29 -34 -71 -42 -93 -27 -72
-107 -228 -159 -310 -73 -113 -63 -84 16 48 64 106 129 242 138 285 2 11 15
38 29 61 15 23 23 41 19 41 -7 0 17 19 24 20 1 0 -10 -24 -25 -52z m22 -18
c-10 -16 -20 -27 -22 -25 -5 5 26 55 34 55 3 0 -3 -13 -12 -30z m11 -40 c-9
-16 -18 -30 -21 -30 -2 0 2 14 11 30 9 17 18 30 21 30 2 0 -2 -13 -11 -30z
m26 -13 c-10 -9 -11 -8 -5 6 3 10 9 15 12 12 3 -3 0 -11 -7 -18z m-85 -59
c-18 -26 -22 -17 -5 14 6 11 13 17 16 15 3 -3 -2 -16 -11 -29z m34 2 c-6 -12
-14 -20 -17 -17 -2 3 1 14 8 26 17 26 24 19 9 -9z m48 -30 c-7 -10 -14 -17
-17 -15 -4 4 18 35 25 35 2 0 -1 -9 -8 -20z m-337 -28 c-6 -12 -11 -24 -11
-29 1 -4 9 8 20 27 11 19 19 30 20 23 0 -16 -32 -84 -47 -101 -7 -7 -13 -19
-13 -25 0 -15 -57 -137 -64 -137 -8 0 42 129 64 168 11 17 15 32 10 32 -5 0
-2 16 7 35 9 19 18 33 21 31 2 -2 -1 -13 -7 -24z m209 -44 c-39 -76 -80 -148
-86 -148 -2 0 22 49 54 109 31 60 59 108 60 106 2 -2 -10 -32 -28 -67z m41 19
c-10 -9 -11 -8 -5 6 3 10 9 15 12 12 3 -3 0 -11 -7 -18z m39 -1 c0 -3 -4 -8
-10 -11 -5 -3 -10 -1 -10 4 0 6 5 11 10 11 6 0 10 -2 10 -4z m11 -29 c-10 -9
-11 -8 -5 6 3 10 9 15 12 12 3 -3 0 -11 -7 -18z m-71 -17 c-6 -12 -14 -20 -17
-17 -2 3 1 14 8 26 17 26 24 19 9 -9z m12 -42 c-11 -24 -32 -56 -47 -73 -30
-33 -24 -17 12 31 12 17 28 45 34 63 6 18 13 30 16 27 3 -2 -4 -24 -15 -48z
m-739 7 c-3 -9 -8 -14 -10 -11 -3 3 -2 9 2 15 9 16 15 13 8 -4z m242 -25 c-4
-12 -9 -19 -12 -17 -3 3 -2 15 2 27 4 12 9 19 12 17 3 -3 2 -15 -2 -27z m439
-19 c-29 -44 -42 -55 -23 -18 22 40 42 68 46 63 3 -2 -8 -23 -23 -45z m89 34
c-3 -9 -8 -14 -10 -11 -3 3 -2 9 2 15 9 16 15 13 8 -4z m-35 -60 c-6 -14 -13
-23 -15 -21 -5 5 15 46 22 46 3 0 -1 -11 -7 -25z m-508 0 c0 -8 -4 -15 -10
-15 -5 0 -7 7 -4 15 4 8 8 15 10 15 2 0 4 -7 4 -15z m40 -26 c-7 -11 -14 -18
-17 -15 -3 3 0 12 7 21 18 21 23 19 10 -6z m338 -24 c-6 -14 -13 -23 -15 -21
-5 5 15 46 22 46 3 0 -1 -11 -7 -25z m24 -17 c-8 -8 -9 -4 -5 13 4 13 8 18 11
10 2 -7 -1 -18 -6 -23z m30 0 c-7 -7 -12 -8 -12 -2 0 14 12 26 19 19 2 -3 -1
-11 -7 -17z m-141 -15 c-12 -20 -14 -14 -5 12 4 9 9 14 11 11 3 -2 0 -13 -6
-23z m189 -23 c-6 -11 -13 -20 -16 -20 -2 0 0 9 6 20 6 11 13 20 16 20 2 0 0
-9 -6 -20z m-97 -5 c-3 -9 -8 -14 -10 -11 -3 3 -2 9 2 15 9 16 15 13 8 -4z
m-4318 -45 c0 -7 -6 -15 -12 -17 -8 -3 -13 4 -13 17 0 13 5 20 13 18 6 -3 12
-11 12 -18z m3805 -26 c63 -20 131 -40 150 -46 75 -22 150 -73 150 -103 0 -12
-9 -11 -46 5 -55 24 -104 25 -144 5 -64 -33 -72 -74 -40 -218 24 -109 34 -223
22 -262 -10 -36 -44 -45 -73 -19 -45 41 -109 161 -130 244 -11 46 -34 111 -51
144 -37 74 -117 175 -157 199 -30 18 -47 49 -36 67 26 42 197 35 355 -16z
m-3875 -34 c-5 -8 -11 -8 -17 -2 -6 6 -7 16 -3 22 5 8 11 8 17 2 6 -6 7 -16 3
-22z m6505 -201 c0 -14 -17 -10 -23 5 -4 10 -1 13 9 9 7 -3 14 -9 14 -14z
m-6390 -21 c0 -7 -5 -20 -10 -28 -9 -13 -11 -13 -20 0 -16 24 -12 40 10 40 11
0 20 -6 20 -12z m6411 -11 c-1 -12 -15 -9 -19 4 -3 6 1 10 8 8 6 -3 11 -8 11
-12z m-6512 -73 c-11 -12 -19 -30 -18 -40 4 -25 -18 -64 -37 -64 -10 0 -13 7
-8 25 5 19 2 25 -11 25 -22 0 -18 9 29 65 37 43 41 46 53 29 11 -15 10 -21 -8
-40z m4324 20 c39 -20 135 -78 212 -129 131 -86 184 -129 174 -140 -3 -2 -31
3 -63 11 -32 8 -90 16 -129 17 -70 2 -72 1 -86 -28 -9 -19 -16 -67 -18 -130
-4 -158 -35 -328 -53 -294 -12 22 -38 145 -55 264 -9 61 -29 163 -46 228 -16
66 -32 145 -36 178 -7 73 -2 74 100 23z m-4271 -6 c-7 -7 -12 -8 -12 -2 0 6 3
14 7 17 3 4 9 5 12 2 2 -3 -1 -11 -7 -17z m-142 -100 c0 -12 -3 -18 -7 -14 -4
3 -20 -15 -36 -41 -26 -41 -30 -44 -39 -28 -8 13 -6 26 8 49 32 55 74 75 74
34z m-406 -7 c3 -5 0 -24 -8 -42 l-14 -34 -7 27 c-11 42 11 78 29 49z m282
-88 c-10 -10 -19 5 -10 18 6 11 8 11 12 0 2 -7 1 -15 -2 -18z m-36 -22 c0 -11
-7 -27 -16 -35 -8 -9 -12 -21 -8 -27 4 -7 0 -9 -14 -5 -15 5 -21 1 -26 -19 -4
-14 -12 -25 -19 -25 -7 0 -35 -25 -62 -55 -51 -56 -81 -68 -92 -38 -4 11 1 22
15 31 12 8 22 21 22 28 0 8 7 14 15 14 8 0 15 4 15 9 0 5 9 13 20 16 11 3 20
13 20 21 0 8 9 14 20 14 11 0 20 7 20 15 0 8 6 15 14 15 8 0 24 14 36 30 25
34 40 39 40 11z m60 -6 c0 -8 -4 -15 -10 -15 -5 0 -10 7 -10 15 0 8 5 15 10
15 6 0 10 -7 10 -15z m-32 -37 c-6 -18 -28 -21 -28 -4 0 9 7 16 16 16 9 0 14
-5 12 -12z m-528 -124 c0 -8 -10 -14 -25 -14 -27 0 -28 1 -19 23 7 18 44 10
44 -9z m3448 -44 c72 -26 92 -45 38 -35 -57 11 -66 -3 -63 -101 2 -79 0 -85
-24 -110 l-27 -27 -12 23 c-7 13 -15 49 -18 82 -4 53 -7 59 -25 54 -18 -4 -19
-1 -14 40 3 34 13 55 38 80 18 19 35 30 38 25 3 -4 34 -19 69 -31z m-3503 10
c-3 -5 -10 -10 -16 -10 -5 0 -9 5 -9 10 0 6 7 10 16 10 8 0 12 -4 9 -10z m306
-22 c11 -20 8 -26 -32 -60 -27 -24 -47 -34 -53 -28 -6 6 -3 16 7 28 9 10 17
22 17 27 0 8 40 55 46 55 2 0 9 -10 15 -22z m-425 -105 c-10 -10 -19 5 -10 18
6 11 8 11 12 0 2 -7 1 -15 -2 -18z m5764 -29 c8 -6 33 -15 55 -18 22 -4 64
-23 93 -42 88 -58 81 -85 -20 -81 -84 3 -92 -8 -99 -144 -5 -95 -17 -145 -33
-128 -2 2 -9 65 -15 139 -6 74 -18 153 -26 175 -8 22 -14 61 -15 88 0 46 1 47
23 35 12 -7 29 -18 37 -24z m-5470 17 c0 -12 -61 -43 -69 -35 -8 8 37 44 55
44 8 0 14 -4 14 -9z m-90 -52 c0 -15 -83 -99 -97 -99 -17 0 -16 5 9 49 31 54
88 86 88 50z m-120 -82 c0 -12 -10 -33 -22 -45 -43 -43 -79 -72 -89 -72 -6 0
-24 -13 -42 -30 -18 -16 -35 -30 -39 -30 -4 0 -9 -9 -13 -20 -4 -11 -20 -23
-38 -28 -19 -5 -32 -15 -32 -24 0 -9 -8 -25 -18 -36 -15 -16 -24 -18 -47 -12
-28 8 -29 7 -24 -18 4 -22 0 -30 -26 -44 -18 -10 -38 -18 -46 -18 -8 0 -14 -9
-14 -20 0 -14 -11 -25 -32 -34 -21 -9 -35 -24 -42 -47 -9 -28 -16 -34 -36 -31
-19 2 -41 -12 -87 -57 -35 -32 -63 -63 -63 -68 0 -10 -46 -46 -72 -56 -9 -3
-23 2 -33 13 -16 18 -15 19 16 22 32 3 44 16 81 86 6 12 17 20 25 18 8 -3 21
10 33 34 11 21 30 42 42 46 13 4 49 35 81 70 32 35 63 64 67 64 5 0 27 17 50
37 22 20 46 38 53 39 7 1 30 18 52 39 22 20 56 47 75 60 19 12 44 32 54 44 11
11 25 21 32 21 7 0 18 9 24 19 5 11 19 22 29 26 11 3 36 21 57 40 21 19 39 35
41 35 2 0 3 -10 3 -23z m-705 -327 c-3 -5 -10 -10 -16 -10 -5 0 -9 5 -9 10 0
6 7 10 16 10 8 0 12 -4 9 -10z m-261 -221 c-19 -21 -44 -25 -61 -8 -18 18 -3
39 27 39 16 0 32 6 37 13 5 9 9 7 11 -6 2 -10 -4 -27 -14 -38z m-94 -88 c0 -6
-5 -13 -11 -17 -6 -3 -8 -17 -5 -30 6 -24 -7 -33 -19 -14 -4 6 -14 9 -23 8
-28 -5 -24 26 5 44 31 19 53 23 53 9z m290 -170 c0 -6 -4 -13 -10 -16 -5 -3
-10 1 -10 9 0 9 5 16 10 16 6 0 10 -4 10 -9z m330 -116 c0 -8 -4 -15 -10 -15
-5 0 -10 7 -10 15 0 8 5 15 10 15 6 0 10 -7 10 -15z"/>
<path d="M4320 4526 c0 -2 8 -10 18 -17 15 -13 16 -12 3 4 -13 16 -21 21 -21
13z"/>
<path d="M7804 4285 c-17 -13 -16 -14 14 -4 33 11 41 19 19 19 -7 0 -22 -7
-33 -15z"/>
<path d="M7665 4270 c-3 -6 1 -7 9 -4 18 7 21 14 7 14 -6 0 -13 -4 -16 -10z"/>
<path d="M7714 4265 c-18 -14 -18 -14 4 -8 12 3 22 9 22 14 0 12 -3 11 -26 -6z"/>
<path d="M7831 4269 c-13 -5 -21 -12 -18 -15 3 -3 18 1 34 10 31 17 21 20 -16
5z"/>
<path d="M7623 4245 c0 -11 4 -12 14 -4 7 6 13 13 13 15 0 2 -6 4 -13 4 -8 0
-14 -7 -14 -15z"/>
<path d="M7583 4238 c-11 -19 -13 -39 -2 -32 5 3 7 9 4 14 -3 5 3 13 12 19 10
6 13 11 6 11 -6 0 -15 -6 -20 -12z"/>
<path d="M7708 4232 c-16 -9 -28 -21 -28 -25 0 -5 11 -2 24 7 14 9 27 12 31 7
3 -6 -3 -14 -12 -20 -10 -6 -13 -11 -6 -11 7 0 20 8 30 19 10 10 27 23 38 29
20 11 20 11 -2 12 -12 0 -25 -4 -28 -10 -3 -5 -11 -10 -16 -10 -6 0 -7 5 -4
10 8 13 5 12 -27 -8z"/>
<path d="M7499 4223 c-13 -16 -12 -17 4 -4 16 13 21 21 13 21 -2 0 -10 -8 -17
-17z"/>
<path d="M7646 4223 c-6 -14 -5 -15 5 -6 7 7 10 15 7 18 -3 3 -9 -2 -12 -12z"/>
<path d="M8253 4227 c0 -8 6 -14 14 -14 9 0 10 4 2 14 -6 7 -12 13 -14 13 -1
0 -2 -6 -2 -13z"/>
<path d="M7619 4204 c6 -12 8 -24 5 -27 -3 -3 4 -3 15 0 12 3 24 9 27 14 3 5
-2 6 -11 3 -9 -4 -22 1 -31 12 -14 18 -15 18 -5 -2z"/>
<path d="M8215 4210 c3 -5 8 -10 11 -10 2 0 4 5 4 10 0 6 -5 10 -11 10 -5 0
-7 -4 -4 -10z"/>
<path d="M7539 4183 c-13 -16 -12 -17 4 -4 9 7 17 15 17 17 0 8 -8 3 -21 -13z"/>
<path d="M7577 4182 c-10 -10 -17 -23 -17 -29 0 -5 -9 -18 -21 -29 -24 -22
-48 -60 -30 -50 14 9 14 0 1 -25 -6 -10 -7 -19 -2 -19 5 0 16 15 25 33 13 25
16 26 11 7 -8 -30 -4 -27 30 28 14 23 22 42 18 42 -5 0 -15 -11 -22 -25 -7
-14 -16 -23 -18 -20 -3 3 -11 0 -19 -6 -24 -21 -13 7 12 29 14 12 25 27 25 34
0 6 7 20 17 30 9 10 14 18 11 18 -3 0 -12 -8 -21 -18z"/>
<path d="M8330 4192 c0 -4 9 -8 20 -8 11 0 20 4 20 8 0 4 -9 8 -20 8 -11 0
-20 -4 -20 -8z"/>
<path d="M7669 4169 l-24 -20 28 17 c15 9 27 18 27 20 0 8 -8 4 -31 -17z"/>
<path d="M8340 4160 c0 -5 4 -10 9 -10 6 0 13 5 16 10 3 6 -1 10 -9 10 -9 0
-16 -4 -16 -10z"/>
<path d="M7532 4153 c-7 -2 -17 -14 -23 -26 -9 -19 -8 -20 3 -7 8 8 20 21 28
28 15 13 13 14 -8 5z"/>
<path d="M7620 4150 c-9 -6 -10 -10 -3 -10 6 0 15 5 18 10 8 12 4 12 -15 0z"/>
<path d="M7593 4093 c-11 -15 -26 -39 -33 -53 -12 -23 -12 -24 3 -11 10 7 17
19 17 25 0 7 9 22 21 35 12 12 19 25 16 27 -3 3 -14 -7 -24 -23z"/>
<path d="M7662 4108 c-7 -7 -12 -17 -12 -24 0 -6 -7 -17 -15 -24 -9 -8 -15 -9
-15 -2 0 6 5 14 10 17 6 3 10 11 10 17 0 6 -11 1 -25 -12 -14 -13 -25 -29 -25
-36 0 -6 -7 -17 -15 -24 -16 -13 -20 -30 -7 -30 13 0 42 56 34 66 -3 5 0 3 7
-3 13 -11 13 -15 0 -30 -17 -22 -22 -31 -94 -171 -31 -62 -55 -116 -52 -119 3
-3 19 21 34 53 61 124 127 241 159 281 19 23 30 44 26 47 -5 3 -14 0 -20 -6z"/>
<path d="M7480 4079 c-7 -11 -10 -23 -7 -25 2 -2 9 7 15 21 14 30 7 33 -8 4z"/>
<path d="M7406 4043 c-5 -13 -4 -14 9 -3 11 9 15 9 15 1 0 -7 5 -9 10 -6 16
10 12 21 -9 22 -11 1 -22 -5 -25 -14z"/>
<path d="M7476 4023 c-6 -14 -5 -15 5 -6 7 7 10 15 7 18 -3 3 -9 -2 -12 -12z"/>
<path d="M7517 4012 c-9 -15 -37 -52 -61 -82 -44 -54 -57 -78 -35 -64 8 4 9
-1 4 -16 -4 -14 -3 -20 3 -16 5 3 12 15 15 26 3 11 1 18 -4 14 -14 -9 -10 12
5 25 26 22 27 -18 1 -69 -24 -47 -45 -71 -45 -51 0 5 5 13 10 16 6 3 10 11 10
18 0 8 -3 8 -11 0 -7 -7 -13 -30 -14 -53 -1 -23 1 -38 5 -33 19 21 111 205 99
197 -19 -11 -39 -14 -39 -5 0 5 11 20 25 35 32 34 59 75 54 81 -3 2 -12 -8
-22 -23z"/>
<path d="M7366 3993 c-6 -14 -5 -15 5 -6 7 7 10 15 7 18 -3 3 -9 -2 -12 -12z"/>
<path d="M7415 3989 c-3 -4 2 -6 10 -5 21 3 28 13 10 13 -9 0 -18 -4 -20 -8z"/>
<path d="M7583 3924 c-43 -87 -108 -211 -153 -289 -33 -58 -36 -66 -15 -59 8
3 19 20 25 37 6 18 22 50 36 72 25 38 26 39 20 10 -6 -27 -4 -26 14 9 24 47
25 52 5 36 -16 -13 25 72 70 145 25 41 48 105 40 113 -2 2 -21 -31 -42 -74z"/>
<path d="M7436 3950 c-14 -22 -24 -40 -22 -40 9 0 59 70 54 75 -3 3 -17 -13
-32 -35z"/>
<path d="M7516 3965 c-9 -14 -13 -25 -8 -25 5 0 14 11 20 25 6 14 10 25 8 25
-2 0 -11 -11 -20 -25z"/>
<path d="M7345 3949 c-4 -6 -5 -12 -2 -15 2 -3 7 2 10 11 7 17 1 20 -8 4z"/>
<path d="M7387 3931 c-4 -17 -3 -21 5 -13 5 5 8 16 6 23 -3 8 -7 3 -11 -10z"/>
<path d="M7255 3889 c-4 -6 -5 -12 -2 -15 2 -3 7 2 10 11 7 17 1 20 -8 4z"/>
<path d="M7276 3883 c-6 -14 -5 -15 5 -6 7 7 10 15 7 18 -3 3 -9 -2 -12 -12z"/>
<path d="M7345 3889 c-4 -6 -5 -12 -2 -15 2 -3 7 2 10 11 7 17 1 20 -8 4z"/>
<path d="M7285 3859 c-4 -6 -5 -12 -2 -15 2 -3 7 2 10 11 7 17 1 20 -8 4z"/>
<path d="M7322 3784 c-23 -46 -42 -88 -41 -92 0 -4 20 33 45 82 25 48 44 90
42 92 -2 2 -23 -35 -46 -82z"/>
<path d="M7256 3845 c-9 -26 -7 -32 5 -12 6 10 9 21 6 23 -2 3 -7 -2 -11 -11z"/>
<path d="M7326 3843 c-6 -14 -5 -15 5 -6 7 7 10 15 7 18 -3 3 -9 -2 -12 -12z"/>
<path d="M7390 3829 c-7 -11 -10 -23 -7 -25 2 -2 9 7 15 21 14 30 7 33 -8 4z"/>
<path d="M7342 3775 c-17 -37 -14 -45 4 -12 9 16 14 31 11 33 -2 2 -9 -7 -15
-21z"/>
<path d="M7240 3779 c0 -5 5 -7 10 -4 6 3 10 8 10 11 0 2 -4 4 -10 4 -5 0 -10
-5 -10 -11z"/>
<path d="M7256 3755 c-9 -26 -7 -32 5 -12 6 10 9 21 6 23 -2 3 -7 -2 -11 -11z"/>
<path d="M7342 3725 c-17 -37 -14 -45 4 -12 9 16 14 31 11 33 -2 2 -9 -7 -15
-21z"/>
<path d="M7100 3694 c0 -8 5 -12 10 -9 6 4 8 11 5 16 -9 14 -15 11 -15 -7z"/>
<path d="M7251 3640 c-24 -47 -28 -64 -6 -33 16 22 37 73 31 73 -2 0 -13 -18
-25 -40z"/>
<path d="M7311 3653 c-10 -26 -10 -27 4 -9 8 11 15 23 15 28 0 15 -7 8 -19
-19z"/>
<path d="M7267 3615 c-24 -50 -20 -58 4 -12 11 22 19 41 17 43 -3 2 -12 -12
-21 -31z"/>
<path d="M7161 3624 c0 -11 3 -14 6 -6 3 7 2 16 -1 19 -3 4 -6 -2 -5 -13z"/>
<path d="M7276 3581 c-9 -24 -14 -46 -12 -49 8 -7 38 67 33 81 -2 6 -11 -9
-21 -32z"/>
<path d="M7070 3581 c-12 -24 -13 -34 -1 -27 9 6 22 46 15 46 -2 0 -8 -9 -14
-19z"/>
<path d="M7125 3570 c-4 -12 -5 -24 -2 -27 3 -2 8 5 12 17 4 12 5 24 2 27 -3
2 -8 -5 -12 -17z"/>
<path d="M7150 3555 c0 -8 2 -15 4 -15 2 0 6 7 10 15 3 8 1 15 -4 15 -6 0 -10
-7 -10 -15z"/>
<path d="M7241 3544 c0 -11 3 -14 6 -6 3 7 2 16 -1 19 -3 4 -6 -2 -5 -13z"/>
<path d="M7880 2386 c0 -2 9 -6 20 -9 11 -3 20 -1 20 4 0 5 -9 9 -20 9 -11 0
-20 -2 -20 -4z"/>
<path d="M7235 9002 c-68 -28 -70 -32 -33 -54 40 -24 67 -57 68 -80 0 -10 5
-18 10 -18 6 0 10 11 10 25 0 29 39 70 85 90 l30 13 -35 14 c-58 25 -92 27
-135 10z"/>
<path d="M4140 8981 c0 -17 18 -22 62 -15 33 6 38 9 23 15 -29 11 -85 11 -85
0z"/>
<path d="M4373 8974 c7 -8 196 -8 204 0 4 3 -42 6 -102 6 -60 0 -106 -3 -102
-6z"/>
<path d="M7265 8704 c-11 -108 1 -568 14 -591 12 -21 13 21 11 402 -1 253 -12
332 -25 189z"/>
<path d="M5642 8300 c0 -14 2 -19 5 -12 2 6 2 18 0 25 -3 6 -5 1 -5 -13z"/>
<path d="M6373 7857 c-34 -42 -72 -60 -117 -54 -22 3 -42 11 -44 16 -2 6 -12
11 -22 11 -10 0 -20 4 -22 9 -5 13 -81 23 -97 12 -8 -5 -16 -23 -17 -39 -2
-38 -60 -127 -91 -141 -13 -6 -39 -11 -58 -11 -52 0 -55 -31 -12 -106 55 -93
77 -170 77 -268 0 -47 5 -88 10 -91 6 -4 8 -10 5 -15 -3 -4 34 -11 82 -15 49
-3 122 -11 163 -16 87 -11 358 -39 380 -39 11 0 16 13 18 48 2 50 16 102 65
247 39 115 37 149 -10 198 -22 22 -47 37 -61 37 -37 0 -81 28 -88 56 -4 14 -1
50 6 80 13 52 12 55 -10 79 -20 21 -33 25 -81 25 -48 0 -61 -4 -76 -23z"/>
<path d="M8132 7758 c-11 -18 -23 -44 -26 -58 -7 -27 -25 -177 -31 -252 -3
-26 -9 -81 -14 -122 -5 -40 -6 -94 -4 -119 3 -26 -2 -79 -12 -124 -21 -91 -25
-214 -9 -234 6 -8 28 -51 47 -97 20 -46 46 -91 59 -102 50 -40 279 -51 333
-16 58 38 93 241 60 352 -20 68 -24 228 -7 287 7 27 7 56 0 103 -9 51 -8 74 1
101 17 45 7 96 -25 128 -16 16 -32 51 -43 97 l-19 73 -118 1 c-66 0 -131 4
-145 8 -23 6 -29 3 -47 -26z"/>
<path d="M5234 7046 c-3 -8 -4 -21 -1 -28 3 -7 6 -3 6 10 1 27 21 30 21 2 0
-11 4 -20 8 -20 5 0 8 10 7 23 -2 26 -32 36 -41 13z"/>
<path d="M5302 7040 c0 -14 2 -19 5 -12 2 6 2 18 0 25 -3 6 -5 1 -5 -13z"/>
<path d="M5343 7044 c-3 -8 -2 -19 3 -24 5 -5 9 1 9 16 0 28 -3 30 -12 8z"/>
<path d="M5401 7023 c0 -25 1 -26 9 -8 12 27 12 35 0 35 -5 0 -10 -12 -9 -27z"/>
<path d="M5448 7025 c2 -14 6 -25 8 -25 2 0 4 11 4 25 0 14 -4 25 -9 25 -4 0
-6 -11 -3 -25z"/>
<path d="M6662 6898 c-7 -7 -12 -19 -12 -27 1 -13 2 -13 11 2 5 9 17 17 24 17
8 0 15 5 15 10 0 14 -23 13 -38 -2z"/>
<path d="M6727 6904 c-4 -4 -7 -16 -7 -26 0 -12 7 -18 23 -17 16 1 18 2 5 6
-10 2 -18 11 -18 19 0 17 12 18 29 2 11 -11 13 -10 9 2 -5 16 -30 25 -41 14z"/>
<path d="M6832 6898 c-29 -29 10 -68 48 -48 32 17 18 60 -20 60 -9 0 -21 -5
-28 -12z"/>
<path d="M5201 6811 c-11 -7 -40 -110 -41 -148 0 -30 20 -10 31 30 18 61 26
64 33 13 4 -25 11 -48 15 -50 4 -3 21 8 37 25 15 16 33 28 39 25 7 -2 24 21
39 51 l26 54 -27 -3 c-22 -2 -34 -14 -53 -50 -14 -27 -29 -46 -35 -45 -5 2
-14 22 -20 45 -12 48 -25 64 -44 53z"/>
<path d="M5647 6744 c-9 -18 -11 -43 -6 -86 10 -86 29 -99 29 -20 0 59 1 62
25 62 29 0 31 -6 10 -26 -8 -9 -15 -28 -15 -44 0 -36 27 -52 78 -48 l37 3 -3
55 c-2 30 -8 59 -13 64 -5 5 -28 12 -51 15 -32 5 -46 12 -53 29 -13 29 -21 28
-38 -4z m123 -111 c-8 -14 -21 -28 -27 -31 -18 -5 -16 25 2 32 19 7 19 20 0
39 -8 8 -11 18 -8 21 4 4 16 -3 27 -14 19 -19 20 -23 6 -47z"/>
<path d="M5846 6753 c-2 -10 -8 -56 -11 -103 -8 -101 6 -98 24 5 7 38 17 75
23 82 5 7 7 17 3 23 -10 16 -33 12 -39 -7z"/>
<path d="M5357 6705 c-26 -26 -47 -53 -47 -62 0 -10 17 1 47 30 27 26 56 47
68 46 20 0 20 0 0 -8 -30 -13 -58 -48 -51 -66 9 -25 52 -40 71 -25 23 19 18
30 -14 30 -17 0 -33 5 -36 10 -10 16 26 24 56 13 16 -6 29 -11 29 -10 0 1 -7
20 -14 42 -20 58 -49 58 -109 0z"/>
<path d="M5952 6653 c2 -53 8 -98 13 -100 6 -1 23 24 39 57 15 33 32 58 36 55
4 -2 10 -32 14 -65 9 -74 28 -79 50 -12 9 26 27 67 41 91 31 53 31 63 3 59
-16 -2 -25 -15 -35 -52 -16 -54 -28 -52 -41 9 -9 47 -32 53 -43 12 -8 -31 -27
-57 -40 -57 -5 0 -9 23 -9 50 0 38 -4 50 -15 50 -13 0 -15 -15 -13 -97z"/>
<path d="M5501 6690 c-13 -61 -14 -90 -3 -90 5 0 13 21 18 48 7 38 13 48 32
50 21 3 22 0 22 -52 0 -73 15 -72 24 2 6 51 5 59 -15 75 -12 9 -32 17 -44 17
-20 0 -25 -8 -34 -50z"/>
<path d="M6283 6653 c-7 -43 -15 -90 -19 -105 -7 -33 10 -38 26 -9 14 28 42
162 36 178 -3 7 -11 13 -19 13 -8 0 -17 -26 -24 -77z"/>
<path d="M6346 6703 c-12 -44 -18 -183 -7 -183 6 0 14 0 17 0 3 0 7 30 8 67 2
38 6 83 11 101 6 26 4 32 -8 32 -9 0 -18 -8 -21 -17z"/>
<path d="M6168 6659 c-26 -15 -34 -74 -14 -104 34 -52 80 -21 91 63 l7 52 -34
0 c-18 0 -41 -5 -50 -11z m43 -49 c23 0 26 -28 4 -37 -9 -3 -25 3 -35 12 -24
22 -26 40 -4 31 9 -3 24 -6 35 -6z"/>
<path d="M6409 6643 c-15 -4 -29 -59 -29 -115 0 -30 17 -12 24 26 8 40 29 61
52 52 14 -5 16 -16 11 -56 -3 -27 -2 -52 2 -55 12 -7 21 31 21 91 0 61 -18 74
-81 57z"/>
<path d="M6537 6612 c-31 -32 -33 -51 -12 -92 10 -20 23 -30 38 -30 26 1 57
22 57 40 0 8 -6 10 -17 5 -10 -4 -28 -10 -40 -12 -20 -5 -23 -1 -23 22 0 25 2
27 31 21 17 -3 45 -6 61 -6 34 0 49 -27 25 -45 -25 -18 -21 -35 8 -35 17 0 29
9 40 30 20 38 19 39 -11 50 -32 12 -21 34 13 25 20 -5 24 -2 21 12 -5 28 -64
30 -73 4 -10 -32 -43 -27 -47 7 -4 38 -36 40 -71 4z m48 -22 c-3 -5 -10 -10
-16 -10 -5 0 -9 5 -9 10 0 6 7 10 16 10 8 0 12 -4 9 -10z"/>
<path d="M6772 6588 c-20 -20 -14 -45 16 -67 26 -19 26 -20 5 -21 -12 0 -25 5
-28 10 -9 15 -25 12 -25 -5 0 -19 43 -47 61 -40 21 8 40 42 33 60 -4 9 -15 20
-25 26 -21 11 -27 34 -6 26 51 -21 50 -21 38 1 -13 24 -50 29 -69 10z"/>
<path d="M5278 6350 c-6 -55 -3 -61 13 -26 9 18 9 32 2 48 -9 21 -11 18 -15
-22z"/>
<path d="M5396 6369 c-48 -38 -26 -55 23 -18 56 41 69 -3 20 -69 l-31 -42 26
0 c21 0 26 -5 26 -24 0 -13 -7 -30 -16 -37 -14 -11 -20 -9 -43 19 -22 28 -28
31 -43 20 -9 -7 -20 -25 -23 -39 -5 -21 -1 -31 21 -48 34 -27 53 -27 95 2 37
25 47 58 29 93 -11 19 -9 30 10 68 21 44 21 48 6 71 -21 31 -63 33 -100 4z"/>
<path d="M6350 6270 c-18 -18 -28 -50 -15 -50 3 0 16 12 29 27 20 24 26 25 40
14 9 -7 16 -26 16 -42 0 -22 -6 -30 -25 -35 -34 -8 -26 -28 12 -32 27 -3 32 1
42 29 16 46 14 66 -11 89 -28 25 -62 26 -88 0z"/>
<path d="M6516 6248 c-19 -27 -21 -69 -4 -86 7 -7 29 -12 49 -12 34 0 39 3 49
35 10 30 9 40 -4 60 -21 33 -69 34 -90 3z m75 -22 c17 -37 -4 -68 -44 -64 -43
4 -49 37 -11 67 34 27 42 26 55 -3z"/>
<path d="M5170 6225 c7 -8 24 -15 39 -15 25 1 25 1 -8 15 -42 19 -47 19 -31 0z"/>
<path d="M5270 6225 c-8 -9 -8 -15 -2 -15 12 0 26 19 19 26 -2 2 -10 -2 -17
-11z"/>
<path d="M5536 6195 c4 -8 8 -15 10 -15 2 0 4 7 4 15 0 8 -4 15 -10 15 -5 0
-7 -7 -4 -15z"/>
<path d="M5190 6133 c-28 -11 -49 -35 -43 -51 11 -30 56 -71 90 -83 40 -13 96
-5 113 16 19 23 77 15 89 -12 8 -17 19 -23 41 -23 71 0 148 61 120 95 -17 20
-41 19 -136 -5 -95 -25 -121 -20 -193 31 -30 22 -57 39 -60 38 -3 0 -13 -3
-21 -6z"/>
<path d="M6290 6101 c0 -24 17 -37 58 -44 39 -8 82 7 82 28 0 12 -4 14 -19 5
-30 -15 -56 -12 -76 10 -23 25 -45 26 -45 1z"/>
<path d="M6470 6082 c0 -19 27 -32 65 -32 60 0 63 12 8 27 -57 15 -73 16 -73
5z"/>
<path d="M4598 6024 c-16 -36 -15 -42 6 -21 17 17 27 45 17 51 -4 3 -14 -11
-23 -30z"/>
<path d="M6148 5954 c5 -9 8 -26 5 -38 -3 -20 -3 -20 5 -1 10 22 4 55 -10 55
-5 0 -5 -6 0 -16z"/>
<path d="M6193 5944 c-3 -8 -3 -18 1 -21 3 -4 6 0 7 8 1 8 4 3 8 -10 l6 -24
12 26 c10 22 9 26 -8 30 -12 3 -22 0 -26 -9z"/>
<path d="M6121 5934 c0 -11 3 -14 6 -6 3 7 2 16 -1 19 -3 4 -6 -2 -5 -13z"/>
<path d="M6253 5933 c-7 -2 -13 -14 -12 -26 0 -22 0 -22 10 1 5 13 13 20 19
17 5 -3 10 -1 10 4 0 12 -7 13 -27 4z"/>
<path d="M6290 5908 c0 -19 2 -20 10 -8 13 19 13 30 0 30 -5 0 -10 -10 -10
-22z"/>
<path d="M6361 5904 c0 -11 3 -14 6 -6 3 7 2 16 -1 19 -3 4 -6 -2 -5 -13z"/>
<path d="M6392 5890 c0 -14 2 -19 5 -12 2 6 2 18 0 25 -3 6 -5 1 -5 -13z"/>
<path d="M6445 5889 c-4 -6 -5 -12 -2 -15 2 -3 7 2 10 11 7 17 1 20 -8 4z"/>
<path d="M6520 5877 c0 -18 2 -19 10 -7 9 13 11 13 20 0 8 -12 10 -12 10 5 0
14 -7 21 -20 22 -14 1 -20 -4 -20 -20z"/>
<path d="M6572 5880 c0 -14 2 -19 5 -12 2 6 2 18 0 25 -3 6 -5 1 -5 -13z"/>
<path d="M6471 5874 c0 -11 3 -14 6 -6 3 7 2 16 -1 19 -3 4 -6 -2 -5 -13z"/>
<path d="M4920 5676 c0 -18 -3 -49 -7 -67 -6 -31 -5 -33 10 -20 9 7 17 22 17
32 0 26 15 24 34 -6 23 -35 33 -32 58 20 17 34 19 48 11 56 -9 9 -17 3 -33
-25 -12 -20 -24 -36 -26 -36 -2 0 -11 18 -20 40 -20 50 -44 53 -44 6z"/>
<path d="M5200 5680 c0 -13 4 -19 12 -14 8 5 10 -8 5 -49 -4 -44 -2 -57 10
-61 8 -3 16 -6 17 -6 1 0 0 16 -2 36 -3 28 -1 35 9 32 8 -3 15 -19 17 -36 5
-45 17 -40 18 7 2 36 -1 40 -26 46 -22 5 -30 13 -32 32 -4 32 -28 44 -28 13z"/>
<path d="M5262 5675 c0 -16 2 -22 5 -12 2 9 2 23 0 30 -3 6 -5 -1 -5 -18z"/>
<path d="M5460 5655 c-11 -13 -10 -14 4 -9 9 3 16 10 16 15 0 13 -6 11 -20 -6z"/>
<path d="M5061 5646 c-22 -26 -18 -67 7 -77 20 -7 22 -6 17 14 -7 28 8 52 28
44 10 -4 13 -13 10 -28 -5 -19 -3 -21 20 -17 19 4 27 1 27 -8 0 -8 5 -14 10
-14 6 0 10 13 10 28 0 15 5 33 12 40 19 19 0 27 -20 9 -15 -14 -20 -15 -33 -3
-23 22 -74 29 -88 12z"/>
<path d="M5411 5644 c0 -11 3 -14 6 -6 3 7 2 16 -1 19 -3 4 -6 -2 -5 -13z"/>
<path d="M5312 5618 c-17 -17 -15 -53 3 -68 8 -7 25 -10 40 -6 19 5 25 13 25
34 0 15 5 33 12 40 9 9 9 12 0 12 -7 0 -12 -5 -12 -10 0 -7 -6 -7 -19 0 -25
13 -34 13 -49 -2z m39 -26 c-9 -3 -9 -7 0 -18 9 -11 7 -14 -10 -14 -21 0 -26
15 -15 44 5 13 9 14 21 4 10 -8 11 -14 4 -16z"/>
<path d="M5416 5614 c-19 -19 -18 -75 1 -82 9 -2 11 5 7 27 -4 19 -2 37 6 46
18 22 6 29 -14 9z"/>
<path d="M5478 5608 c-16 -5 -28 -13 -28 -18 0 -5 -3 -15 -6 -24 -3 -9 -1 -16
5 -16 6 0 11 9 11 19 0 11 5 23 12 27 8 5 9 -2 5 -23 -5 -26 -2 -32 19 -42 14
-6 31 -11 38 -11 15 0 26 32 25 70 -1 19 -3 16 -11 -13 -8 -30 -14 -37 -31
-35 -13 2 -21 12 -23 31 -3 30 21 39 29 10 4 -14 5 -13 6 3 1 27 -16 34 -51
22z"/>
<path d="M5568 5559 c-3 -30 -1 -35 9 -27 7 6 13 22 13 35 0 39 25 21 28 -20
4 -43 22 -40 22 2 0 33 -17 51 -47 48 -17 -1 -22 -9 -25 -38z"/>
<path d="M6365 5559 c-4 -6 -4 -13 0 -17 4 -4 10 -1 12 6 3 6 9 10 14 6 5 -3
9 0 9 5 0 14 -27 14 -35 0z"/>
<path d="M6270 5501 c0 -28 5 -53 10 -56 6 -4 10 7 10 24 0 24 4 31 19 31 10
0 21 7 25 15 3 8 1 15 -4 15 -6 0 -10 -4 -10 -10 0 -5 -10 -10 -21 -10 -16 0
-20 5 -16 20 3 11 1 20 -4 20 -5 0 -9 -22 -9 -49z"/>
<path d="M6080 5498 c0 -46 15 -66 37 -52 25 16 28 33 4 27 -14 -3 -23 0 -27
12 -10 25 10 39 29 21 21 -21 26 -20 20 4 -4 14 -14 20 -34 20 -26 0 -29 -3
-29 -32z"/>
<path d="M6170 5515 c-10 -12 -10 -21 0 -45 13 -31 42 -40 56 -18 4 6 3 8 -4
5 -17 -11 -42 4 -42 24 0 29 48 26 60 -3 8 -22 9 -22 9 4 1 29 -2 32 -40 42
-18 4 -31 1 -39 -9z"/>
<path d="M6350 5495 c13 -16 1 -53 -19 -58 -11 -3 -10 -5 5 -6 15 -1 24 6 28
23 3 13 8 30 11 38 4 9 -2 14 -14 14 -13 0 -17 -4 -11 -11z"/>
<path d="M6407 5496 c-16 -12 -29 -66 -17 -66 4 0 10 14 14 30 9 46 59 39 69
-10 4 -17 5 -15 4 9 -2 29 -7 36 -29 42 -16 4 -33 2 -41 -5z"/>
<path d="M6512 5488 c-7 -7 -12 -25 -12 -40 0 -21 6 -29 26 -34 16 -4 24 -12
22 -23 -5 -25 -33 -24 -46 1 -9 18 -11 19 -9 4 3 -24 38 -48 55 -37 7 4 19 35
26 69 12 58 11 61 -8 66 -31 8 -41 7 -54 -6z m48 -33 c0 -20 -5 -25 -25 -25
-26 0 -29 7 -19 34 10 27 44 20 44 -9z"/>
<path d="M6322 5470 c0 -14 2 -19 5 -12 2 6 2 18 0 25 -3 6 -5 1 -5 -13z"/>
<path d="M6420 5464 c0 -8 5 -12 10 -9 6 3 10 10 10 16 0 5 -4 9 -10 9 -5 0
-10 -7 -10 -16z"/>
<path d="M3 4910 c3 -305 6 -386 20 -435 8 -33 23 -103 32 -155 9 -52 23 -129
31 -170 23 -124 19 -210 -16 -350 -18 -69 -41 -142 -51 -162 -17 -34 -19 -62
-19 -318 0 -154 2 -280 5 -280 3 0 13 4 23 10 33 19 107 42 166 51 70 11 274
15 641 11 149 -1 308 3 355 8 223 25 252 29 470 71 93 18 320 106 351 135 44
42 47 82 10 148 -16 31 -39 68 -50 83 -16 22 -19 37 -14 66 6 38 6 38 47 35
l41 -3 8 50 c8 48 6 54 -42 148 -37 71 -51 109 -51 140 -1 23 -9 56 -18 73
-19 36 -95 127 -162 194 -54 55 -90 105 -91 128 0 9 -8 38 -17 64 -14 38 -28
54 -77 87 -33 23 -66 41 -73 41 -20 0 -152 102 -152 117 0 8 -7 16 -15 19 -8
4 -15 12 -15 20 0 43 -104 175 -170 217 -19 12 -42 29 -52 39 -22 22 -151 83
-229 109 -33 11 -84 30 -112 43 -128 57 -372 116 -482 117 -33 0 -113 6 -178
12 l-117 12 3 -375z"/>
<path d="M5165 5209 c-32 -18 -58 -26 -72 -22 -15 3 -23 1 -23 -7 0 -7 7 -10
17 -6 15 6 16 5 1 -11 -25 -29 -48 -80 -48 -108 0 -34 34 -100 62 -119 54 -38
132 -8 183 69 21 31 25 48 22 79 -5 37 -66 149 -83 152 -5 1 -31 -11 -59 -27z
m72 -21 c32 -36 43 -63 43 -108 0 -50 -20 -92 -59 -119 -42 -30 -68 -26 -112
18 -34 34 -39 45 -39 84 0 55 33 100 95 128 50 23 48 23 72 -3z"/>
<path d="M4851 5124 c0 -11 3 -14 6 -6 3 7 2 16 -1 19 -3 4 -6 -2 -5 -13z"/>
<path d="M6016 5095 c-17 -46 6 -94 39 -81 30 11 29 37 -2 68 -26 25 -31 27
-37 13z"/>
<path d="M6150 5080 c-14 -34 -9 -46 15 -37 16 7 22 67 6 67 -5 0 -14 -14 -21
-30z"/>
<path d="M4841 5074 c0 -11 3 -14 6 -6 3 7 2 16 -1 19 -3 4 -6 -2 -5 -13z"/>
<path d="M6254 5047 c-35 -30 -25 -50 16 -35 22 7 30 16 30 34 0 30 -12 30
-46 1z"/>
<path d="M6080 4994 c-80 -68 -79 -145 2 -198 34 -22 58 -15 109 31 54 49 53
104 -4 166 -33 34 -66 35 -107 1z"/>
<path d="M5920 4976 c0 -23 40 -66 61 -66 20 0 8 50 -17 69 -35 27 -44 26 -44
-3z"/>
<path d="M4947 4983 c-12 -12 -7 -53 9 -78 34 -52 122 -83 151 -54 8 8 20 6
43 -6 45 -23 89 -23 135 1 52 27 65 48 42 71 -19 19 -17 19 -123 -27 -50 -22
-51 -22 -89 -4 -21 10 -57 37 -79 61 -37 39 -72 54 -89 36z"/>
<path d="M6282 4924 c-12 -8 -22 -24 -22 -35 0 -16 5 -18 28 -13 26 6 62 37
62 55 0 15 -44 10 -68 -7z"/>
<path d="M5902 4848 c-20 -20 -13 -55 16 -80 15 -13 31 -31 35 -41 8 -22 48
-22 94 -1 33 16 36 16 83 -6 56 -26 106 -28 151 -5 24 13 30 22 27 43 -2 16
-13 32 -29 41 -24 13 -30 12 -77 -12 -78 -41 -109 -36 -180 23 -60 50 -96 62
-120 38z"/>
<path d="M4717 4623 c-3 -10 -8 -39 -12 -65 -7 -53 8 -67 25 -23 11 29 20 34
13 6 -3 -11 2 -21 11 -24 21 -8 22 30 2 77 -17 41 -33 52 -39 29z"/>
<path d="M4797 4602 c-20 -22 -24 -96 -4 -90 9 3 30 108 21 108 0 0 -8 -8 -17
-18z"/>
<path d="M4975 4614 c-6 -2 -8 -28 -7 -60 4 -53 3 -55 -19 -52 -29 4 -38 28
-10 28 29 0 29 46 0 55 -23 8 -22 8 -37 -20 -11 -20 -11 -20 -12 1 0 17 -5 20
-31 16 -28 -4 -30 -6 -27 -46 2 -28 8 -41 18 -41 11 0 14 10 12 40 l-3 40 26
-40 c24 -39 69 -63 81 -43 3 5 14 2 25 -8 11 -9 22 -14 27 -10 4 4 -1 14 -12
21 -15 12 -18 23 -14 65 5 50 2 61 -17 54z m-35 -64 c-20 -13 -33 -13 -25 0 3
6 14 10 23 10 15 0 15 -2 2 -10z"/>
<path d="M5026 4601 c-4 -7 -5 -15 -2 -18 9 -9 19 4 14 18 -4 11 -6 11 -12 0z"/>
<path d="M5227 4556 c10 -13 20 -20 21 -15 5 12 -17 39 -30 39 -5 0 -1 -11 9
-24z"/>
<path d="M5177 4563 c-13 -13 -8 -123 6 -123 9 0 11 12 9 39 -4 35 -1 40 20
44 l23 4 -24 2 c-18 1 -22 5 -18 21 5 20 -3 26 -16 13z"/>
<path d="M5011 4543 c0 -11 3 -13 6 -5 7 17 43 15 43 -3 0 -10 -10 -15 -32
-15 -30 0 -31 -1 -16 -16 18 -18 51 -7 62 22 9 23 -2 34 -35 34 -21 0 -29 -5
-28 -17z"/>
<path d="M5097 4536 c-4 -10 4 -15 24 -18 33 -5 36 -1 12 18 -23 17 -30 17
-36 0z"/>
<path d="M5261 4506 c-7 -8 -11 -27 -9 -43 2 -22 9 -29 31 -31 25 -3 27 -1 27
36 0 27 -5 42 -16 46 -21 8 -20 8 -33 -8z m31 -36 c3 -20 0 -30 -8 -30 -18 0
-24 13 -17 38 8 31 20 27 25 -8z"/>
<path d="M5071 4501 c-32 -21 24 -63 64 -47 23 9 18 43 -7 50 -31 8 -40 7 -57
-3z m59 -20 c0 -15 -16 -22 -34 -15 -25 9 -19 24 9 24 14 0 25 -4 25 -9z"/>
<path d="M5224 4484 c-4 -14 -2 -30 5 -37 8 -8 11 -1 11 26 0 43 -7 48 -16 11z"/>
<path d="M5326 4495 c-9 -25 -7 -65 3 -65 6 0 11 15 13 33 2 20 8 32 18 32 11
0 15 -12 15 -48 0 -27 4 -46 10 -44 6 2 10 26 10 53 0 48 -1 49 -31 52 -22 2
-33 -2 -38 -13z"/>
<path d="M3241 4458 c-1 -12 -6 -15 -17 -11 -9 3 -21 -3 -30 -16 -8 -11 -20
-21 -25 -21 -22 0 -108 -77 -148 -131 -23 -31 -62 -74 -86 -95 -25 -21 -45
-44 -45 -52 0 -7 -4 -11 -9 -8 -5 3 -18 -9 -30 -27 -11 -17 -32 -48 -45 -67
-14 -19 -25 -43 -25 -52 -1 -10 -10 -22 -21 -28 -11 -6 -20 -16 -20 -22 0 -6
-13 -36 -28 -67 -16 -31 -39 -87 -53 -126 -13 -38 -28 -73 -34 -77 -6 -5 -5
-8 2 -8 24 0 92 84 256 319 29 41 92 124 141 185 140 174 228 296 223 309 -3
7 -6 5 -6 -5z"/>
<path d="M5773 4418 c-10 -59 -7 -71 11 -45 7 9 19 17 25 17 9 0 10 10 6 33
-15 66 -31 64 -42 -5z"/>
<path d="M5847 4427 c-16 -30 -21 -50 -16 -58 13 -19 37 13 45 58 9 50 -1 50
-29 0z"/>
<path d="M5991 4423 c0 -31 2 -34 9 -18 12 28 12 55 0 55 -5 0 -10 -17 -9 -37z"/>
<path d="M6073 4435 c-7 -8 -13 -34 -13 -59 0 -39 -2 -44 -20 -39 -24 6 -25
21 -4 51 21 31 11 39 -15 13 -30 -30 -28 -69 4 -77 39 -10 55 1 55 40 0 19 4
46 10 60 10 28 2 33 -17 11z"/>
<path d="M6255 4393 c-12 -76 -15 -83 -35 -83 -20 0 -40 22 -24 27 5 2 16 8
24 13 13 9 13 11 0 20 -24 16 -40 12 -49 -14 -12 -31 -41 -42 -41 -16 0 11 4
20 10 20 5 0 7 7 3 15 -9 24 -36 13 -44 -18 -10 -37 31 -80 44 -44 3 9 15 6
44 -10 61 -34 67 -31 81 42 14 78 15 85 2 85 -5 0 -12 -17 -15 -37z"/>
<path d="M5900 4401 c-15 -29 -12 -58 6 -65 23 -9 44 -7 44 3 0 5 -9 7 -21 4
-18 -5 -20 -2 -17 23 2 22 9 30 27 32 20 3 23 0 18 -18 -7 -26 1 -52 14 -44
13 8 11 58 -3 72 -18 18 -56 14 -68 -7z"/>
<path d="M2502 4314 c-7 -14 -12 -34 -12 -45 0 -10 -4 -27 -9 -37 -17 -34 -30
-67 -33 -87 -2 -14 -12 -21 -32 -23 -16 -2 -38 -13 -50 -24 -11 -11 -31 -27
-43 -35 -12 -8 -27 -31 -33 -51 -17 -55 -42 -112 -50 -112 -9 0 -60 -105 -60
-124 0 -9 -4 -16 -10 -16 -5 0 -13 -12 -16 -27 -4 -16 -17 -41 -30 -56 -19
-23 -21 -32 -13 -51 6 -13 22 -29 35 -35 22 -9 32 -4 106 56 46 37 97 80 113
96 17 16 48 43 69 60 67 55 156 149 204 217 25 36 67 92 93 125 48 62 94 136
81 133 -4 -1 -20 6 -36 17 -23 15 -51 20 -135 23 -58 2 -111 8 -117 13 -7 6
-15 0 -22 -17z"/>
<path d="M5844 4166 c-3 -8 -4 -25 -2 -38 3 -17 5 -13 9 15 5 38 2 47 -7 23z"/>
<path d="M5875 4169 c-4 -6 -5 -12 -2 -15 2 -3 7 2 10 11 7 17 1 20 -8 4z"/>
<path d="M4820 4155 c-19 -23 -8 -26 19 -4 16 13 18 19 8 19 -8 0 -20 -7 -27
-15z"/>
<path d="M4868 4140 c-17 -17 -29 -32 -26 -35 2 -3 20 11 38 30 41 43 32 47
-12 5z"/>
<path d="M5902 4140 c0 -19 2 -27 5 -17 2 9 2 25 0 35 -3 9 -5 1 -5 -18z"/>
<path d="M4914 4143 c-4 -10 -6 -24 -5 -32 2 -9 -3 -12 -13 -8 -9 4 -16 2 -16
-3 0 -6 9 -10 20 -10 13 0 20 7 20 19 0 11 5 23 10 26 12 8 13 25 1 25 -5 0
-12 -8 -17 -17z"/>
<path d="M5953 4125 c0 -22 2 -30 4 -17 2 12 2 30 0 40 -3 9 -5 -1 -4 -23z"/>
<path d="M4954 4124 c-15 -22 -15 -27 -3 -35 8 -5 21 -8 29 -8 11 1 10 3 -2 6
-19 5 -22 12 -12 37 15 39 52 1 38 -40 -5 -16 -4 -16 5 -4 6 8 11 27 11 43 0
22 -4 27 -25 27 -15 0 -31 -10 -41 -26z"/>
<path d="M5053 4133 c-15 -5 -18 -63 -3 -63 6 0 10 11 10 25 0 16 6 25 15 25
14 0 19 -11 16 -37 -1 -6 3 -14 9 -18 6 -4 10 6 10 23 0 30 -31 54 -57 45z"/>
<path d="M5772 4120 c0 -14 2 -19 5 -12 2 6 2 18 0 25 -3 6 -5 1 -5 -13z"/>
<path d="M5867 4120 c-3 -11 -1 -20 4 -20 5 0 9 9 9 20 0 11 -2 20 -4 20 -2 0
-6 -9 -9 -20z"/>
<path d="M5923 4125 c-3 -9 -3 -18 -1 -21 3 -3 8 4 11 16 6 23 -1 27 -10 5z"/>
<path d="M5982 4120 c0 -14 2 -19 5 -12 2 6 2 18 0 25 -3 6 -5 1 -5 -13z"/>
<path d="M5550 4113 c0 -10 -3 -43 -6 -73 -6 -53 -6 -54 10 -32 23 30 44 28
49 -5 3 -22 4 -19 6 11 0 26 9 49 24 64 15 17 17 23 6 20 -9 -4 -20 2 -27 13
-16 25 -62 26 -62 2z m58 -32 c3 -16 -1 -22 -10 -19 -7 3 -15 15 -16 27 -3 16
1 22 10 19 7 -3 15 -15 16 -27z"/>
<path d="M5137 4113 c-23 -22 7 -81 35 -70 9 4 7 6 -4 6 -19 1 -27 18 -20 44
9 33 62 9 62 -28 0 -14 4 -25 8 -25 5 0 7 14 4 31 -3 21 -12 33 -29 40 -29 11
-47 12 -56 2z"/>
<path d="M5160 4086 c0 -2 7 -6 15 -10 8 -3 15 -1 15 4 0 6 -7 10 -15 10 -8 0
-15 -2 -15 -4z"/>
<path d="M5244 4074 c3 -9 6 -22 6 -30 0 -8 8 -14 18 -13 10 0 12 3 5 6 -7 2
-13 16 -13 29 0 13 -5 24 -11 24 -6 0 -8 -7 -5 -16z"/>
<path d="M5756 4021 c-4 -29 -4 -55 -2 -60 8 -12 66 -19 72 -9 3 4 -9 8 -27 8
-32 0 -32 0 -26 43 3 23 2 48 -2 56 -5 8 -11 -6 -15 -38z"/>
<path d="M5636 4042 c-14 -16 -15 -24 -5 -46 14 -30 46 -43 63 -26 8 9 7 11
-8 8 -22 -4 -42 23 -33 46 8 21 53 21 61 0 3 -9 6 -27 6 -41 0 -35 6 -27 14
18 5 30 3 38 -11 44 -41 16 -70 15 -87 -3z"/>
<path d="M5670 4010 c0 -5 7 -10 16 -10 8 0 12 5 9 10 -3 6 -10 10 -16 10 -5
0 -9 -4 -9 -10z"/>
<path d="M5800 3999 c-15 -26 -3 -40 14 -16 16 21 30 22 22 1 -5 -12 -2 -15
10 -10 12 5 15 2 11 -13 -3 -13 0 -18 12 -16 9 1 15 5 14 8 -2 4 -3 22 -3 40
-1 29 -2 30 -14 14 -12 -15 -15 -15 -26 -2 -17 20 -27 19 -40 -6z"/>
<path d="M5914 3995 c8 -8 17 -15 20 -15 3 0 6 7 6 15 0 9 -9 15 -21 15 -18 0
-19 -2 -5 -15z"/>
<path d="M5960 3973 c-11 -19 -20 -36 -20 -37 0 -9 60 -27 69 -21 6 3 11 23
11 44 0 30 -4 40 -20 44 -14 4 -25 -4 -40 -30z m48 -12 c5 -31 -12 -48 -31
-32 -12 9 -12 17 -3 36 13 30 30 27 34 -4z"/>
<path d="M6047 4003 c-10 -10 -8 -103 2 -103 5 0 11 21 13 46 3 46 -3 70 -15
57z"/>
<path d="M6094 3988 c-12 -18 -22 -88 -13 -88 8 0 13 15 24 68 7 33 2 41 -11
20z"/>
<path d="M6130 3961 c-25 -48 6 -86 65 -79 23 2 31 10 37 36 6 24 14 32 26 30
14 -3 16 -13 14 -48 -2 -33 0 -42 8 -34 6 6 10 31 8 55 -3 41 -5 44 -35 47
-30 3 -32 1 -35 -34 -2 -30 -7 -38 -27 -41 -25 -4 -51 12 -51 31 0 7 6 21 14
31 13 19 15 18 29 -15 14 -32 15 -33 16 -9 2 46 -48 68 -69 30z"/>
<path d="M5906 3961 c-4 -7 -5 -15 -2 -18 9 -9 19 4 14 18 -4 11 -6 11 -12 0z"/>
<path d="M2898 3649 c-10 -10 -18 -23 -18 -29 0 -5 -7 -7 -15 -4 -11 5 -13 2
-8 -12 4 -11 3 -15 -5 -10 -13 8 -26 -10 -17 -23 6 -11 95 73 95 89 0 15 -13
11 -32 -11z"/>
<path d="M4786 3594 c-11 -28 -6 -80 8 -100 13 -17 14 -16 7 17 -5 20 -7 50
-6 68 3 34 0 39 -9 15z"/>
<path d="M2802 3564 c-7 -8 -10 -19 -7 -24 3 -6 -3 -10 -14 -10 -24 0 -37 -18
-24 -31 7 -7 19 0 35 20 14 16 29 27 32 24 3 -4 6 1 6 10 0 22 -13 27 -28 11z"/>
<path d="M3022 3573 c-7 -2 -17 -14 -23 -26 -11 -21 -10 -20 15 2 14 14 26 26
26 28 0 3 0 3 -18 -4z"/>
<path d="M2680 3444 c-46 -44 -51 -54 -34 -54 13 0 24 8 26 18 3 10 21 26 39
35 22 10 35 24 36 36 2 30 -6 26 -67 -35z"/>
<path d="M2592 3358 c-7 -7 -12 -16 -12 -21 0 -5 7 -1 16 8 9 9 14 18 12 20
-2 3 -10 -1 -16 -7z"/>
<path d="M4544 3235 c-9 -14 -15 -27 -13 -30 3 -2 12 10 21 26 21 36 15 39 -8
4z"/>
<path d="M4604 3232 c4 -7 4 -22 0 -35 l-8 -22 -7 25 c-6 23 -7 23 -8 3 -1
-33 17 -38 31 -8 9 20 9 28 -2 38 -10 9 -11 9 -6 -1z"/>
<path d="M4651 3224 c0 -11 3 -14 6 -6 3 7 2 16 -1 19 -3 4 -6 -2 -5 -13z"/>
<path d="M2400 3200 c-13 -11 -26 -20 -30 -20 -5 0 -39 -29 -76 -65 -38 -36
-73 -65 -79 -65 -6 0 -12 -12 -13 -26 -2 -25 1 -23 58 26 33 28 72 66 86 83
15 18 30 32 33 31 3 0 19 12 36 28 34 32 21 39 -15 8z"/>
<path d="M4975 3180 c-8 -16 -15 -39 -14 -52 1 -17 3 -15 9 9 10 43 29 65 52
60 10 -3 16 -1 12 4 -12 19 -44 8 -59 -21z"/>
<path d="M4614 3149 c-10 -11 -26 -18 -36 -16 -10 3 -16 1 -12 -4 9 -16 30
-10 54 16 13 14 21 25 18 25 -3 0 -13 -9 -24 -21z"/>
<path d="M5082 3120 c0 -14 2 -19 5 -12 2 6 2 18 0 25 -3 6 -5 1 -5 -13z"/>
<path d="M2870 3119 c0 -5 5 -7 10 -4 6 3 10 8 10 11 0 2 -4 4 -10 4 -5 0 -10
-5 -10 -11z"/>
<path d="M5518 3123 c7 -3 16 -2 19 1 4 3 -2 6 -13 5 -11 0 -14 -3 -6 -6z"/>
<path d="M5480 3105 c-7 -9 -11 -17 -9 -20 3 -2 10 5 17 15 14 24 10 26 -8 5z"/>
<path d="M5016 3077 c3 -10 9 -15 12 -12 3 3 0 11 -7 18 -10 9 -11 8 -5 -6z"/>
<path d="M5057 3057 l-17 -32 20 24 c17 20 26 41 18 41 -2 0 -11 -15 -21 -33z"/>
<path d="M5572 3055 c0 -16 2 -22 5 -12 2 9 2 23 0 30 -3 6 -5 -1 -5 -18z"/>
<path d="M5500 3040 c0 -5 5 -10 11 -10 5 0 7 5 4 10 -3 6 -8 10 -11 10 -2 0
-4 -4 -4 -10z"/>
<path d="M2161 2990 c-13 -17 -29 -30 -37 -30 -8 0 -14 -7 -14 -15 0 -8 3 -15
8 -15 13 0 74 69 70 79 -1 6 -14 -3 -27 -19z"/>
<path d="M2700 2989 c0 -5 5 -7 10 -4 6 3 10 8 10 11 0 2 -4 4 -10 4 -5 0 -10
-5 -10 -11z"/>
<path d="M4832 2949 c3 -22 10 -25 73 -32 39 -4 218 -32 399 -63 181 -30 335
-52 344 -49 30 11 -4 23 -118 43 -63 11 -236 41 -385 67 -148 25 -281 49 -293
52 -20 5 -23 2 -20 -18z"/>
<path d="M5508 2963 c7 -3 16 -2 19 1 4 3 -2 6 -13 5 -11 0 -14 -3 -6 -6z"/>
<path d="M6001 2948 c-1 -9 -11 -24 -23 -32 -12 -9 -18 -16 -12 -16 17 0 47
38 41 52 -4 9 -6 7 -6 -4z"/>
<path d="M2076 2905 c4 -8 7 -15 9 -15 1 0 8 7 15 15 10 13 9 15 -8 15 -15 0
-20 -5 -16 -15z"/>
<path d="M2610 2910 c0 -5 5 -10 10 -10 6 0 10 5 10 10 0 6 -4 10 -10 10 -5 0
-10 -4 -10 -10z"/>
<path d="M2024 2870 c-16 -16 -35 -30 -42 -30 -7 0 -11 -4 -8 -8 3 -5 -7 -15
-21 -23 -15 -8 -41 -28 -58 -45 -17 -17 -37 -33 -45 -36 -7 -2 -11 -10 -9 -16
3 -8 18 0 43 23 21 19 40 35 42 35 1 0 18 14 36 30 18 17 35 30 39 30 14 0 69
59 61 64 -5 3 -22 -8 -38 -24z"/>
<path d="M1805 2691 c-3 -5 -1 -12 5 -16 5 -3 10 1 10 9 0 18 -6 21 -15 7z"/>
<path d="M1767 2652 c-18 -20 -22 -32 -9 -32 10 1 45 50 34 50 -5 0 -16 -8
-25 -18z"/>
<path d="M1725 2609 c-4 -6 -5 -12 -2 -15 2 -3 7 2 10 11 7 17 1 20 -8 4z"/>
<path d="M1676 2575 c-4 -13 -2 -14 14 -5 23 13 26 20 6 20 -8 0 -16 -7 -20
-15z"/>
<path d="M1596 2505 c4 -8 10 -12 15 -9 11 6 2 24 -11 24 -5 0 -7 -7 -4 -15z"/>
<path d="M1570 2497 c0 -8 -16 -29 -35 -46 -20 -17 -30 -31 -23 -31 31 1 88
72 68 85 -5 3 -10 0 -10 -8z"/>
<path d="M2110 2480 c0 -5 5 -10 10 -10 6 0 10 5 10 10 0 6 -4 10 -10 10 -5 0
-10 -4 -10 -10z"/>
<path d="M1454 2379 c-19 -22 -19 -22 3 -10 24 12 39 31 25 31 -5 0 -17 -10
-28 -21z"/>
<path d="M1407 2343 c-4 -3 -7 -11 -7 -17 0 -6 5 -5 12 2 6 6 9 14 7 17 -3 3
-9 2 -12 -2z"/>
<path d="M1355 2310 c-3 -5 1 -10 9 -10 9 0 16 5 16 10 0 6 -4 10 -9 10 -6 0
-13 -4 -16 -10z"/>
<path d="M1 2115 c0 -71 3 -124 6 -117 3 9 12 7 34 -9 16 -11 29 -15 29 -9 0
6 6 10 13 9 29 -4 39 3 56 42 11 23 22 36 25 30 4 -6 5 -15 1 -20 -11 -19 13
-20 30 -1 10 11 24 20 31 20 7 0 16 9 19 20 7 21 25 28 25 10 0 -17 20 -11 54
15 18 14 38 25 45 25 7 0 9 5 6 10 -3 6 -17 7 -31 4 -14 -4 -24 -2 -24 5 0 6
7 8 17 4 11 -4 14 -3 9 6 -5 8 -3 12 5 10 35 -4 48 1 42 18 -5 13 -3 15 13 8
33 -14 74 -18 74 -7 0 6 8 13 19 17 20 6 69 45 57 45 -5 0 -21 -9 -37 -21 -18
-13 -29 -16 -29 -8 0 7 -8 2 -19 -10 -20 -22 -45 -20 -55 5 -7 17 5 18 23 2
11 -11 13 -10 8 4 -4 12 -2 15 9 11 7 -3 14 -1 14 4 0 4 -106 8 -235 8 l-235
0 1 -130z m166 -9 c15 -13 25 -27 22 -30 -3 -4 -21 7 -39 24 -38 36 -24 41 17
6z"/>
<path d="M721 2163 c0 -5 4 -17 9 -28 8 -18 9 -17 9 8 1 15 -3 27 -9 27 -5 0
-10 -3 -9 -7z"/>
<path d="M1125 2160 c-3 -5 -1 -10 4 -10 6 0 11 5 11 10 0 6 -2 10 -4 10 -3 0
-8 -4 -11 -10z"/>
<path d="M1089 2123 c-13 -16 -12 -17 4 -4 9 7 17 15 17 17 0 8 -8 3 -21 -13z"/>
<path d="M1606 2071 c-3 -5 1 -11 9 -15 15 -6 29 7 18 18 -9 9 -21 8 -27 -3z"/>
<path d="M577 2043 c-4 -3 -7 -13 -7 -21 0 -12 3 -12 15 -2 8 7 15 16 15 21 0
11 -14 12 -23 2z"/>
<path d="M687 2023 c-10 -9 -9 -23 2 -23 5 0 11 7 15 15 5 15 -5 20 -17 8z"/>
<path d="M886 2003 c-6 -14 -5 -15 5 -6 7 7 10 15 7 18 -3 3 -9 -2 -12 -12z"/>
<path d="M616 1967 c-4 -16 -8 -19 -16 -11 -9 9 -18 5 -35 -12 -13 -13 -32
-24 -41 -24 -11 0 -15 -6 -11 -20 3 -11 1 -20 -5 -20 -5 0 -24 -11 -41 -24
-23 -17 -40 -23 -59 -19 -35 7 -37 -13 -3 -29 14 -6 25 -18 25 -26 0 -12 4
-12 20 3 11 10 20 23 20 30 0 18 51 62 95 82 33 15 95 65 95 77 0 2 -9 6 -19
9 -14 3 -21 -2 -25 -16z"/>
<path d="M1395 1960 c-3 -5 -4 -10 -1 -10 2 0 11 -3 20 -6 11 -4 16 -1 16 10
0 18 -25 22 -35 6z"/>
<path d="M720 1914 c0 -8 5 -12 10 -9 6 3 10 10 10 16 0 5 -4 9 -10 9 -5 0
-10 -7 -10 -16z"/>
<path d="M1316 1921 c-3 -5 3 -11 14 -14 13 -3 20 0 20 9 0 15 -26 19 -34 5z"/>
<path d="M895 1810 c-3 -5 1 -10 9 -10 8 0 18 -9 21 -21 5 -14 10 -18 17 -11
15 15 -1 52 -22 52 -10 0 -22 -4 -25 -10z"/>
<path d="M857 1792 c-22 -4 -67 -45 -67 -61 0 -6 -4 -11 -10 -11 -5 0 -10 -5
-10 -10 0 -16 49 20 55 41 9 28 43 24 51 -6 3 -14 12 -25 20 -25 18 0 18 26 0
33 -8 3 -16 14 -18 24 -2 12 -10 17 -21 15z"/>
<path d="M830 1685 c0 -9 6 -12 15 -9 8 4 12 10 9 15 -8 14 -24 10 -24 -6z"/>
<path d="M735 1680 c-3 -5 -2 -10 4 -10 5 0 13 5 16 10 3 6 2 10 -4 10 -5 0
-13 -4 -16 -10z"/>
<path d="M0 795 l0 -795 2093 0 c2067 1 2092 1 2057 20 -19 11 -45 19 -57 20
-12 0 -52 16 -90 36 -37 20 -81 37 -98 40 -16 2 -61 16 -100 30 -38 14 -92 33
-118 41 -26 8 -53 23 -60 34 -6 10 -17 19 -23 19 -6 0 -19 9 -29 20 -10 11
-24 20 -31 20 -7 0 -28 14 -46 30 -46 43 -132 98 -162 106 -15 3 -30 12 -34
19 -11 18 -47 35 -76 35 -14 0 -47 7 -73 16 -26 10 -57 18 -68 20 -90 16 -125
24 -155 37 -19 8 -57 18 -85 21 -62 9 -148 33 -200 57 -22 10 -56 20 -75 23
-64 9 -116 22 -150 39 -18 9 -53 17 -77 17 -23 0 -43 4 -43 9 0 11 -120 50
-179 58 -25 3 -64 14 -86 24 -22 10 -60 23 -85 28 -25 6 -66 15 -92 20 -26 6
-61 17 -77 26 -17 8 -48 15 -69 15 -23 0 -45 6 -52 15 -7 8 -22 15 -34 15 -11
0 -52 6 -89 14 -38 8 -75 12 -82 10 -7 -3 -16 -1 -20 5 -3 6 -15 11 -26 11
-10 0 -64 20 -120 44 -55 25 -115 48 -132 52 -17 3 -37 12 -44 19 -7 7 -31 16
-53 20 -22 4 -40 11 -40 16 0 5 -6 9 -13 9 -7 0 -55 20 -106 45 -51 25 -102
45 -114 45 -12 1 -33 7 -47 15 -14 8 -35 14 -48 15 -12 0 -54 16 -92 35 -38
19 -75 35 -82 35 -7 0 -36 16 -65 35 -28 19 -64 37 -79 41 -16 4 -41 20 -55
35 -14 16 -32 29 -41 29 -8 0 -27 14 -43 30 -16 17 -35 30 -42 30 -21 0 -93
39 -93 50 0 11 -25 22 -72 34 l-28 6 0 -795z"/>
<path d="M1410 1370 c0 -5 5 -10 10 -10 6 0 10 5 10 10 0 6 -4 10 -10 10 -5 0
-10 -4 -10 -10z"/>
<path d="M2782 1039 c2 -7 10 -15 17 -17 8 -3 12 1 9 9 -2 7 -10 15 -17 17 -8
3 -12 -1 -9 -9z"/>
<path d="M6333 830 c-33 -19 -33 -21 -32 -92 0 -40 5 -98 10 -128 6 -30 14
-97 19 -148 5 -51 14 -120 20 -154 5 -33 7 -65 4 -69 -2 -4 0 -50 6 -101 18
-154 4 -138 129 -138 l109 0 -4 108 c-2 59 -6 121 -9 137 -2 17 -9 126 -15
242 -9 185 -24 300 -45 333 -8 14 -74 30 -120 30 -22 0 -54 -9 -72 -20z"/>
<path d="M6170 794 c-11 -12 -10 -41 5 -157 10 -78 20 -160 21 -182 1 -22 7
-74 13 -115 5 -41 12 -104 14 -140 2 -36 7 -95 12 -132 7 -62 10 -68 31 -68
19 0 24 5 24 25 0 14 -7 36 -16 50 -12 19 -13 28 -4 45 8 16 8 40 0 98 -7 42
-14 115 -16 162 -6 113 -11 176 -19 230 -3 25 -6 72 -6 105 1 33 -2 68 -5 77
-7 22 -37 23 -54 2z"/>
<path d="M5978 735 c-2 -3 -23 -6 -45 -9 -23 -2 -46 -7 -53 -11 -13 -8 -9
-117 8 -220 6 -33 13 -85 16 -115 3 -30 13 -98 22 -150 9 -52 19 -120 24 -152
4 -31 11 -61 14 -67 4 -6 39 -11 83 -11 l75 0 -6 33 c-6 34 -40 377 -51 512
-9 118 -34 195 -63 195 -10 0 -21 -2 -24 -5z"/>
<path d="M5764 644 c-4 -22 -2 -40 5 -47 8 -8 11 1 11 36 0 56 -7 61 -16 11z"/>
<path d="M5570 562 l-35 -17 1 -93 c0 -71 4 -96 17 -110 9 -10 17 -32 17 -48
0 -16 7 -65 16 -109 8 -44 18 -104 21 -132 l5 -53 59 0 59 0 -5 43 c-6 42 -18
119 -35 232 -6 33 -16 109 -24 168 -19 142 -28 152 -96 119z"/>
<path d="M5336 344 c-3 -9 -6 -29 -6 -45 0 -38 50 -189 62 -189 5 0 7 8 5 18
-3 9 -11 55 -17 102 -16 117 -19 130 -29 130 -5 0 -12 -7 -15 -16z"/>
<path d="M5800 333 c0 -17 5 -35 10 -38 13 -8 13 35 0 55 -7 11 -10 7 -10 -17z"/>
<path d="M5812 250 c0 -14 2 -19 5 -12 2 6 2 18 0 25 -3 6 -5 1 -5 -13z"/>
<path d="M5820 146 c0 -20 5 -36 10 -36 6 0 10 13 10 29 0 17 -4 33 -10 36 -6
4 -10 -8 -10 -29z"/>
</g>
</svg>
